<?xml version="1.0" encoding="UTF-8" standalone="no"?>
<!DOCTYPE svg PUBLIC "-//W3C//DTD SVG 1.1//EN"
 "http://www.w3.org/Graphics/SVG/1.1/DTD/svg11.dtd">
<!-- Generated by graphviz version 2.40.1 (20161225.0304)
 -->
<!-- Title: artists Pages: 1 -->
<svg width="712pt" height="442pt"
 viewBox="0.00 0.00 712.00 442.00" xmlns="http://www.w3.org/2000/svg" xmlns:xlink="http://www.w3.org/1999/xlink">
<g id="graph0" class="graph" transform="scale(1 1) rotate(0) translate(4 438)">
<title>artists</title>
<polygon fill="#ffffff" stroke="transparent" points="-4,4 -4,-438 708,-438 708,4 -4,4"/>
<!-- artists -->
<g id="node1" class="node">
<title>artists</title>
<polygon fill="#efefef" stroke="transparent" points="46,-105.5 46,-140.5 220,-140.5 220,-105.5 46,-105.5"/>
<polygon fill="none" stroke="#000000" points="46,-105.5 46,-140.5 220,-140.5 220,-105.5 46,-105.5"/>
<text text-anchor="start" x="87.9931" y="-118.3" font-family="Arial Bold" font-size="18.00" fill="#000000">artists</text>
<text text-anchor="start" x="135.9901" y="-118.3" font-family="Arial" font-size="14.00" fill="#000000"> </text>
<text text-anchor="start" x="139.8807" y="-118.3" font-family="Arial" font-size="14.00" fill="#666666">[table]</text>
<polygon fill="none" stroke="#000000" points="46,-75.5 46,-105.5 220,-105.5 220,-75.5 46,-75.5"/>
<text text-anchor="start" x="53" y="-86.9" font-family="Arial" font-size="14.00" fill="#000000">ArtistId </text>
<text text-anchor="start" x="100.4488" y="-86.9" font-family="Arial" font-size="14.00" fill="#666666">[INTEGER]</text>
<polygon fill="none" stroke="#000000" points="46,-45.5 46,-75.5 220,-75.5 220,-45.5 46,-45.5"/>
<text text-anchor="start" x="52.892" y="-56.9" font-family="Arial" font-size="14.00" fill="#000000">Name </text>
<text text-anchor="start" x="94.115" y="-56.9" font-family="Arial" font-size="14.00" fill="#666666">[NVARCHAR(120)]</text>
<polygon fill="none" stroke="#000000" stroke-width="3" points="44.5,-44.5 44.5,-142.5 221.5,-142.5 221.5,-44.5 44.5,-44.5"/>
</g>
<!-- albums -->
<g id="node2" class="node">
<title>albums</title>
<polygon fill="#efefef" stroke="transparent" points="51,-355.5 51,-390.5 214,-390.5 214,-355.5 51,-355.5"/>
<polygon fill="none" stroke="#000000" points="51,-355.5 51,-390.5 214,-390.5 214,-355.5 51,-355.5"/>
<text text-anchor="start" x="82.4891" y="-368.3" font-family="Arial Bold" font-size="18.00" fill="#000000">albums</text>
<text text-anchor="start" x="140.4941" y="-368.3" font-family="Arial" font-size="14.00" fill="#000000"> </text>
<text text-anchor="start" x="144.3847" y="-368.3" font-family="Arial" font-size="14.00" fill="#666666">[table]</text>
<polygon fill="none" stroke="#000000" points="51,-325.5 51,-355.5 214,-355.5 214,-325.5 51,-325.5"/>
<text text-anchor="start" x="58" y="-336.9" font-family="Arial" font-size="14.00" fill="#000000">AlbumId </text>
<text text-anchor="start" x="113.2328" y="-336.9" font-family="Arial" font-size="14.00" fill="#666666">[INTEGER]</text>
<polygon fill="none" stroke="#000000" points="51,-295.5 51,-325.5 214,-325.5 214,-295.5 51,-295.5"/>
<text text-anchor="start" x="57.8387" y="-306.9" font-family="Arial" font-size="14.00" fill="#000000">Title </text>
<text text-anchor="start" x="88.1683" y="-306.9" font-family="Arial" font-size="14.00" fill="#666666">[NVARCHAR(160)]</text>
<polygon fill="none" stroke="#000000" points="51,-265.5 51,-295.5 214,-295.5 214,-265.5 51,-265.5"/>
<text text-anchor="start" x="58" y="-276.9" font-family="Arial" font-size="14.00" fill="#000000">ArtistId </text>
<text text-anchor="start" x="105.4488" y="-276.9" font-family="Arial" font-size="14.00" fill="#666666">[INTEGER]</text>
</g>
<!-- albums&#45;&gt;artists -->
<g id="edge1" class="edge">
<title>albums:ArtistId&#45;&gt;artists:ArtistId</title>
<path fill="none" stroke="#000000" d="M131.9571,-255.0564C123.4727,-216.1833 65.5877,-231.0567 46,-187 28.576,-147.8099 3.1111,-90.5 46,-90.5"/>
<polygon fill="#000000" stroke="#000000" points="132.0063,-255.5495 128.5223,-265.9472 132.5031,-260.5247 133,-265.5 133,-265.5 133,-265.5 132.5031,-260.5247 137.4777,-265.0528 132.0063,-255.5495 132.0063,-255.5495"/>
<text text-anchor="start" x="140.3995" y="-275.5" font-family="Arial" font-size="10.00" fill="#000000">FOREIGN KEY (ArtistId) REFERENCES artists (ArtistId) ON UPDATE NO ACTION ON DELETE NO ACTION MATCH NONE</text>
</g>
</g>
</svg>
