<?xml version="1.0" encoding="UTF-8" standalone="no"?>
<!DOCTYPE svg PUBLIC "-//W3C//DTD SVG 1.1//EN"
 "http://www.w3.org/Graphics/SVG/1.1/DTD/svg11.dtd">
<!-- Generated by graphviz version 2.40.1 (20161225.0304)
 -->
<!-- Title: customers Pages: 1 -->
<svg width="1403pt" height="1559pt"
 viewBox="0.00 0.00 1403.00 1559.00" xmlns="http://www.w3.org/2000/svg" xmlns:xlink="http://www.w3.org/1999/xlink">
<g id="graph0" class="graph" transform="scale(1 1) rotate(0) translate(4 1555)">
<title>customers</title>
<polygon fill="#ffffff" stroke="transparent" points="-4,4 -4,-1555 1399,-1555 1399,4 -4,4"/>
<!-- customers -->
<g id="node1" class="node">
<title>customers</title>
<polygon fill="#efefef" stroke="transparent" points="649,-1042.5 649,-1077.5 850,-1077.5 850,-1042.5 649,-1042.5"/>
<polygon fill="none" stroke="#000000" points="649,-1042.5 649,-1077.5 850,-1077.5 850,-1042.5 649,-1042.5"/>
<text text-anchor="start" x="686.989" y="-1055.3" font-family="Arial Bold" font-size="18.00" fill="#000000">customers</text>
<text text-anchor="start" x="769.9942" y="-1055.3" font-family="Arial" font-size="14.00" fill="#000000"> </text>
<text text-anchor="start" x="773.8848" y="-1055.3" font-family="Arial" font-size="14.00" fill="#666666">[table]</text>
<polygon fill="none" stroke="#000000" points="649,-1012.5 649,-1042.5 850,-1042.5 850,-1012.5 649,-1012.5"/>
<text text-anchor="start" x="656" y="-1023.9" font-family="Arial" font-size="14.00" fill="#000000">CustomerId </text>
<text text-anchor="start" x="732.23" y="-1023.9" font-family="Arial" font-size="14.00" fill="#666666">[INTEGER]</text>
<polygon fill="none" stroke="#000000" points="649,-982.5 649,-1012.5 850,-1012.5 850,-982.5 649,-982.5"/>
<text text-anchor="start" x="656" y="-993.9" font-family="Arial" font-size="14.00" fill="#000000">FirstName </text>
<text text-anchor="start" x="724.4334" y="-993.9" font-family="Arial" font-size="14.00" fill="#666666">[NVARCHAR(40)]</text>
<polygon fill="none" stroke="#000000" points="649,-952.5 649,-982.5 850,-982.5 850,-952.5 649,-952.5"/>
<text text-anchor="start" x="656" y="-963.9" font-family="Arial" font-size="14.00" fill="#000000">LastName </text>
<text text-anchor="start" x="723.6788" y="-963.9" font-family="Arial" font-size="14.00" fill="#666666">[NVARCHAR(20)]</text>
<polygon fill="none" stroke="#000000" points="649,-922.5 649,-952.5 850,-952.5 850,-922.5 649,-922.5"/>
<text text-anchor="start" x="656" y="-933.9" font-family="Arial" font-size="14.00" fill="#000000">Company </text>
<text text-anchor="start" x="719.7882" y="-933.9" font-family="Arial" font-size="14.00" fill="#666666">[NVARCHAR(80)]</text>
<polygon fill="none" stroke="#000000" points="649,-892.5 649,-922.5 850,-922.5 850,-892.5 649,-892.5"/>
<text text-anchor="start" x="656" y="-903.9" font-family="Arial" font-size="14.00" fill="#000000">Address </text>
<text text-anchor="start" x="711.2356" y="-903.9" font-family="Arial" font-size="14.00" fill="#666666">[NVARCHAR(70)]</text>
<polygon fill="none" stroke="#000000" points="649,-862.5 649,-892.5 850,-892.5 850,-862.5 649,-862.5"/>
<text text-anchor="start" x="656" y="-873.9" font-family="Arial" font-size="14.00" fill="#000000">City </text>
<text text-anchor="start" x="683.9944" y="-873.9" font-family="Arial" font-size="14.00" fill="#666666">[NVARCHAR(40)]</text>
<polygon fill="none" stroke="#000000" points="649,-832.5 649,-862.5 850,-862.5 850,-832.5 649,-832.5"/>
<text text-anchor="start" x="656" y="-843.9" font-family="Arial" font-size="14.00" fill="#000000">State </text>
<text text-anchor="start" x="692.5736" y="-843.9" font-family="Arial" font-size="14.00" fill="#666666">[NVARCHAR(40)]</text>
<polygon fill="none" stroke="#000000" points="649,-802.5 649,-832.5 850,-832.5 850,-802.5 649,-802.5"/>
<text text-anchor="start" x="656" y="-813.9" font-family="Arial" font-size="14.00" fill="#000000">Country </text>
<text text-anchor="start" x="708.8962" y="-813.9" font-family="Arial" font-size="14.00" fill="#666666">[NVARCHAR(40)]</text>
<polygon fill="none" stroke="#000000" points="649,-772.5 649,-802.5 850,-802.5 850,-772.5 649,-772.5"/>
<text text-anchor="start" x="655.7728" y="-783.9" font-family="Arial" font-size="14.00" fill="#000000">PostalCode </text>
<text text-anchor="start" x="732.0168" y="-783.9" font-family="Arial" font-size="14.00" fill="#666666">[NVARCHAR(10)]</text>
<polygon fill="none" stroke="#000000" points="649,-742.5 649,-772.5 850,-772.5 850,-742.5 649,-742.5"/>
<text text-anchor="start" x="656" y="-753.9" font-family="Arial" font-size="14.00" fill="#000000">Phone </text>
<text text-anchor="start" x="700.3576" y="-753.9" font-family="Arial" font-size="14.00" fill="#666666">[NVARCHAR(24)]</text>
<polygon fill="none" stroke="#000000" points="649,-712.5 649,-742.5 850,-742.5 850,-712.5 649,-712.5"/>
<text text-anchor="start" x="656" y="-723.9" font-family="Arial" font-size="14.00" fill="#000000">Fax </text>
<text text-anchor="start" x="683.2258" y="-723.9" font-family="Arial" font-size="14.00" fill="#666666">[NVARCHAR(24)]</text>
<polygon fill="none" stroke="#000000" points="649,-682.5 649,-712.5 850,-712.5 850,-682.5 649,-682.5"/>
<text text-anchor="start" x="656" y="-693.9" font-family="Arial" font-size="14.00" fill="#000000">Email </text>
<text text-anchor="start" x="694.8836" y="-693.9" font-family="Arial" font-size="14.00" fill="#666666">[NVARCHAR(60)]</text>
<polygon fill="none" stroke="#000000" points="649,-652.5 649,-682.5 850,-682.5 850,-652.5 649,-652.5"/>
<text text-anchor="start" x="656" y="-663.9" font-family="Arial" font-size="14.00" fill="#000000">SupportRepId </text>
<text text-anchor="start" x="746.2538" y="-663.9" font-family="Arial" font-size="14.00" fill="#666666">[INTEGER]</text>
<polygon fill="none" stroke="#000000" stroke-width="3" points="647,-651.5 647,-1079.5 851,-1079.5 851,-651.5 647,-651.5"/>
</g>
<!-- employees -->
<g id="node3" class="node">
<title>employees</title>
<polygon fill="#efefef" stroke="transparent" points="649,-492.5 649,-527.5 850,-527.5 850,-492.5 649,-492.5"/>
<polygon fill="none" stroke="#000000" points="649,-492.5 649,-527.5 850,-527.5 850,-492.5 649,-492.5"/>
<text text-anchor="start" x="684.9829" y="-505.3" font-family="Arial Bold" font-size="18.00" fill="#000000">employees</text>
<text text-anchor="start" x="772.0003" y="-505.3" font-family="Arial" font-size="14.00" fill="#000000"> </text>
<text text-anchor="start" x="775.8909" y="-505.3" font-family="Arial" font-size="14.00" fill="#666666">[table]</text>
<polygon fill="none" stroke="#000000" points="649,-462.5 649,-492.5 850,-492.5 850,-462.5 649,-462.5"/>
<text text-anchor="start" x="656" y="-473.9" font-family="Arial" font-size="14.00" fill="#000000">EmployeeId </text>
<text text-anchor="start" x="733.798" y="-473.9" font-family="Arial" font-size="14.00" fill="#666666">[INTEGER]</text>
<polygon fill="none" stroke="#000000" points="649,-432.5 649,-462.5 850,-462.5 850,-432.5 649,-432.5"/>
<text text-anchor="start" x="656" y="-443.9" font-family="Arial" font-size="14.00" fill="#000000">LastName </text>
<text text-anchor="start" x="723.6788" y="-443.9" font-family="Arial" font-size="14.00" fill="#666666">[NVARCHAR(20)]</text>
<polygon fill="none" stroke="#000000" points="649,-402.5 649,-432.5 850,-432.5 850,-402.5 649,-402.5"/>
<text text-anchor="start" x="656" y="-413.9" font-family="Arial" font-size="14.00" fill="#000000">FirstName </text>
<text text-anchor="start" x="724.4334" y="-413.9" font-family="Arial" font-size="14.00" fill="#666666">[NVARCHAR(20)]</text>
<polygon fill="none" stroke="#000000" points="649,-372.5 649,-402.5 850,-402.5 850,-372.5 649,-372.5"/>
<text text-anchor="start" x="656" y="-383.9" font-family="Arial" font-size="14.00" fill="#000000">Title </text>
<text text-anchor="start" x="686.3296" y="-383.9" font-family="Arial" font-size="14.00" fill="#666666">[NVARCHAR(30)]</text>
<polygon fill="none" stroke="#000000" points="649,-342.5 649,-372.5 850,-372.5 850,-342.5 649,-342.5"/>
<text text-anchor="start" x="656" y="-353.9" font-family="Arial" font-size="14.00" fill="#000000">ReportsTo </text>
<text text-anchor="start" x="725.2314" y="-353.9" font-family="Arial" font-size="14.00" fill="#666666">[INTEGER]</text>
<polygon fill="none" stroke="#000000" points="649,-312.5 649,-342.5 850,-342.5 850,-312.5 649,-312.5"/>
<text text-anchor="start" x="656" y="-323.9" font-family="Arial" font-size="14.00" fill="#000000">BirthDate </text>
<text text-anchor="start" x="718.23" y="-323.9" font-family="Arial" font-size="14.00" fill="#666666">[DATETIME]</text>
<polygon fill="none" stroke="#000000" points="649,-282.5 649,-312.5 850,-312.5 850,-282.5 649,-282.5"/>
<text text-anchor="start" x="656" y="-293.9" font-family="Arial" font-size="14.00" fill="#000000">HireDate </text>
<text text-anchor="start" x="715.1094" y="-293.9" font-family="Arial" font-size="14.00" fill="#666666">[DATETIME]</text>
<polygon fill="none" stroke="#000000" points="649,-252.5 649,-282.5 850,-282.5 850,-252.5 649,-252.5"/>
<text text-anchor="start" x="656" y="-263.9" font-family="Arial" font-size="14.00" fill="#000000">Address </text>
<text text-anchor="start" x="711.2356" y="-263.9" font-family="Arial" font-size="14.00" fill="#666666">[NVARCHAR(70)]</text>
<polygon fill="none" stroke="#000000" points="649,-222.5 649,-252.5 850,-252.5 850,-222.5 649,-222.5"/>
<text text-anchor="start" x="656" y="-233.9" font-family="Arial" font-size="14.00" fill="#000000">City </text>
<text text-anchor="start" x="683.9944" y="-233.9" font-family="Arial" font-size="14.00" fill="#666666">[NVARCHAR(40)]</text>
<polygon fill="none" stroke="#000000" points="649,-192.5 649,-222.5 850,-222.5 850,-192.5 649,-192.5"/>
<text text-anchor="start" x="656" y="-203.9" font-family="Arial" font-size="14.00" fill="#000000">State </text>
<text text-anchor="start" x="692.5736" y="-203.9" font-family="Arial" font-size="14.00" fill="#666666">[NVARCHAR(40)]</text>
<polygon fill="none" stroke="#000000" points="649,-162.5 649,-192.5 850,-192.5 850,-162.5 649,-162.5"/>
<text text-anchor="start" x="656" y="-173.9" font-family="Arial" font-size="14.00" fill="#000000">Country </text>
<text text-anchor="start" x="708.8962" y="-173.9" font-family="Arial" font-size="14.00" fill="#666666">[NVARCHAR(40)]</text>
<polygon fill="none" stroke="#000000" points="649,-132.5 649,-162.5 850,-162.5 850,-132.5 649,-132.5"/>
<text text-anchor="start" x="655.7728" y="-143.9" font-family="Arial" font-size="14.00" fill="#000000">PostalCode </text>
<text text-anchor="start" x="732.0168" y="-143.9" font-family="Arial" font-size="14.00" fill="#666666">[NVARCHAR(10)]</text>
<polygon fill="none" stroke="#000000" points="649,-102.5 649,-132.5 850,-132.5 850,-102.5 649,-102.5"/>
<text text-anchor="start" x="656" y="-113.9" font-family="Arial" font-size="14.00" fill="#000000">Phone </text>
<text text-anchor="start" x="700.3576" y="-113.9" font-family="Arial" font-size="14.00" fill="#666666">[NVARCHAR(24)]</text>
<polygon fill="none" stroke="#000000" points="649,-72.5 649,-102.5 850,-102.5 850,-72.5 649,-72.5"/>
<text text-anchor="start" x="656" y="-83.9" font-family="Arial" font-size="14.00" fill="#000000">Fax </text>
<text text-anchor="start" x="683.2258" y="-83.9" font-family="Arial" font-size="14.00" fill="#666666">[NVARCHAR(24)]</text>
<polygon fill="none" stroke="#000000" points="649,-42.5 649,-72.5 850,-72.5 850,-42.5 649,-42.5"/>
<text text-anchor="start" x="656" y="-53.9" font-family="Arial" font-size="14.00" fill="#000000">Email </text>
<text text-anchor="start" x="694.8836" y="-53.9" font-family="Arial" font-size="14.00" fill="#666666">[NVARCHAR(60)]</text>
</g>
<!-- customers&#45;&gt;employees -->
<g id="edge2" class="edge">
<title>customers:SupportRepId&#45;&gt;employees:EmployeeId</title>
<path fill="none" stroke="#000000" d="M749.0854,-642.373C740.4002,-598.1238 672.2737,-619.6861 649,-571 631.0775,-533.508 607.4444,-477.5 649,-477.5"/>
<polygon fill="#000000" stroke="#000000" points="749.1005,-642.5405 745.5182,-652.9048 749.5502,-647.5203 750,-652.5 750,-652.5 750,-652.5 749.5502,-647.5203 754.4818,-652.0952 749.1005,-642.5405 749.1005,-642.5405"/>
<text text-anchor="start" x="757.434" y="-662.5" font-family="Arial" font-size="10.00" fill="#000000">FOREIGN KEY (SupportRepId) REFERENCES employees (EmployeeId) ON UPDATE NO ACTION ON DELETE NO ACTION MATCH NONE</text>
</g>
<!-- invoices -->
<g id="node2" class="node">
<title>invoices</title>
<polygon fill="#efefef" stroke="transparent" points="631,-1472.5 631,-1507.5 869,-1507.5 869,-1472.5 631,-1472.5"/>
<polygon fill="none" stroke="#000000" points="631,-1472.5 631,-1507.5 869,-1507.5 869,-1472.5 631,-1472.5"/>
<text text-anchor="start" x="696.4881" y="-1485.3" font-family="Arial Bold" font-size="18.00" fill="#000000">invoices</text>
<text text-anchor="start" x="761.4951" y="-1485.3" font-family="Arial" font-size="14.00" fill="#000000"> </text>
<text text-anchor="start" x="765.3857" y="-1485.3" font-family="Arial" font-size="14.00" fill="#666666">[table]</text>
<polygon fill="none" stroke="#000000" points="631,-1442.5 631,-1472.5 869,-1472.5 869,-1442.5 631,-1442.5"/>
<text text-anchor="start" x="638" y="-1453.9" font-family="Arial" font-size="14.00" fill="#000000">InvoiceId </text>
<text text-anchor="start" x="697.9088" y="-1453.9" font-family="Arial" font-size="14.00" fill="#666666">[INTEGER]</text>
<polygon fill="none" stroke="#000000" points="631,-1412.5 631,-1442.5 869,-1442.5 869,-1412.5 631,-1412.5"/>
<text text-anchor="start" x="638" y="-1423.9" font-family="Arial" font-size="14.00" fill="#000000">CustomerId </text>
<text text-anchor="start" x="714.23" y="-1423.9" font-family="Arial" font-size="14.00" fill="#666666">[INTEGER]</text>
<polygon fill="none" stroke="#000000" points="631,-1382.5 631,-1412.5 869,-1412.5 869,-1382.5 631,-1382.5"/>
<text text-anchor="start" x="638" y="-1393.9" font-family="Arial" font-size="14.00" fill="#000000">InvoiceDate </text>
<text text-anchor="start" x="715.798" y="-1393.9" font-family="Arial" font-size="14.00" fill="#666666">[DATETIME]</text>
<polygon fill="none" stroke="#000000" points="631,-1352.5 631,-1382.5 869,-1382.5 869,-1352.5 631,-1352.5"/>
<text text-anchor="start" x="638" y="-1363.9" font-family="Arial" font-size="14.00" fill="#000000">BillingAddress </text>
<text text-anchor="start" x="730.5638" y="-1363.9" font-family="Arial" font-size="14.00" fill="#666666">[NVARCHAR(70)]</text>
<polygon fill="none" stroke="#000000" points="631,-1322.5 631,-1352.5 869,-1352.5 869,-1322.5 631,-1322.5"/>
<text text-anchor="start" x="638" y="-1333.9" font-family="Arial" font-size="14.00" fill="#000000">BillingCity </text>
<text text-anchor="start" x="703.3226" y="-1333.9" font-family="Arial" font-size="14.00" fill="#666666">[NVARCHAR(40)]</text>
<polygon fill="none" stroke="#000000" points="631,-1292.5 631,-1322.5 869,-1322.5 869,-1292.5 631,-1292.5"/>
<text text-anchor="start" x="638" y="-1303.9" font-family="Arial" font-size="14.00" fill="#000000">BillingState </text>
<text text-anchor="start" x="711.9018" y="-1303.9" font-family="Arial" font-size="14.00" fill="#666666">[NVARCHAR(40)]</text>
<polygon fill="none" stroke="#000000" points="631,-1262.5 631,-1292.5 869,-1292.5 869,-1262.5 631,-1262.5"/>
<text text-anchor="start" x="638" y="-1273.9" font-family="Arial" font-size="14.00" fill="#000000">BillingCountry </text>
<text text-anchor="start" x="728.2244" y="-1273.9" font-family="Arial" font-size="14.00" fill="#666666">[NVARCHAR(40)]</text>
<polygon fill="none" stroke="#000000" points="631,-1232.5 631,-1262.5 869,-1262.5 869,-1232.5 631,-1232.5"/>
<text text-anchor="start" x="637.6087" y="-1243.9" font-family="Arial" font-size="14.00" fill="#000000">BillingPostalCode </text>
<text text-anchor="start" x="751.1809" y="-1243.9" font-family="Arial" font-size="14.00" fill="#666666">[NVARCHAR(10)]</text>
<polygon fill="none" stroke="#000000" points="631,-1202.5 631,-1232.5 869,-1232.5 869,-1202.5 631,-1202.5"/>
<text text-anchor="start" x="638" y="-1213.9" font-family="Arial" font-size="14.00" fill="#000000">Total </text>
<text text-anchor="start" x="673.0056" y="-1213.9" font-family="Arial" font-size="14.00" fill="#666666">[NUMERIC(10,2)]</text>
</g>
<!-- invoices&#45;&gt;customers -->
<g id="edge1" class="edge">
<title>invoices:CustomerId&#45;&gt;customers:CustomerId</title>
<path fill="none" stroke="#000000" d="M620.9617,-1427.0512C514.5987,-1417.2105 556.3068,-1247.974 631,-1160 694.8418,-1084.8069 786.1582,-1199.1931 850,-1124 877.7586,-1091.3057 892.8889,-1027.5 850,-1027.5"/>
<polygon fill="#000000" stroke="#000000" points="621.01,-1427.0532 630.799,-1431.9955 626.005,-1427.2766 631,-1427.5 631,-1427.5 631,-1427.5 626.005,-1427.2766 631.201,-1423.0045 621.01,-1427.0532 621.01,-1427.0532"/>
<text text-anchor="start" x="7.117" y="-1437.5" font-family="Arial" font-size="10.00" fill="#000000">FOREIGN KEY (CustomerId) REFERENCES customers (CustomerId) ON UPDATE NO ACTION ON DELETE NO ACTION MATCH NONE</text>
</g>
</g>
</svg>
