<?xml version="1.0" encoding="UTF-8" standalone="no"?>
<!DOCTYPE svg PUBLIC "-//W3C//DTD SVG 1.1//EN"
 "http://www.w3.org/Graphics/SVG/1.1/DTD/svg11.dtd">
<!-- Generated by graphviz version 2.40.1 (20161225.0304)
 -->
<!-- Title: playlists Pages: 1 -->
<svg width="818pt" height="412pt"
 viewBox="0.00 0.00 818.00 412.00" xmlns="http://www.w3.org/2000/svg" xmlns:xlink="http://www.w3.org/1999/xlink">
<g id="graph0" class="graph" transform="scale(1 1) rotate(0) translate(4 408)">
<title>playlists</title>
<polygon fill="#ffffff" stroke="transparent" points="-4,4 -4,-408 814,-408 814,4 -4,4"/>
<!-- playlists -->
<g id="node1" class="node">
<title>playlists</title>
<polygon fill="#efefef" stroke="transparent" points="46,-105.5 46,-140.5 220,-140.5 220,-105.5 46,-105.5"/>
<polygon fill="none" stroke="#000000" points="46,-105.5 46,-140.5 220,-140.5 220,-105.5 46,-105.5"/>
<text text-anchor="start" x="79.993" y="-118.3" font-family="Arial Bold" font-size="18.00" fill="#000000">playlists</text>
<text text-anchor="start" x="143.9902" y="-118.3" font-family="Arial" font-size="14.00" fill="#000000"> </text>
<text text-anchor="start" x="147.8808" y="-118.3" font-family="Arial" font-size="14.00" fill="#666666">[table]</text>
<polygon fill="none" stroke="#000000" points="46,-75.5 46,-105.5 220,-105.5 220,-75.5 46,-75.5"/>
<text text-anchor="start" x="53" y="-86.9" font-family="Arial" font-size="14.00" fill="#000000">PlaylistId </text>
<text text-anchor="start" x="112.8934" y="-86.9" font-family="Arial" font-size="14.00" fill="#666666">[INTEGER]</text>
<polygon fill="none" stroke="#000000" points="46,-45.5 46,-75.5 220,-75.5 220,-45.5 46,-45.5"/>
<text text-anchor="start" x="52.892" y="-56.9" font-family="Arial" font-size="14.00" fill="#000000">Name </text>
<text text-anchor="start" x="94.115" y="-56.9" font-family="Arial" font-size="14.00" fill="#666666">[NVARCHAR(120)]</text>
<polygon fill="none" stroke="#000000" stroke-width="3" points="44.5,-44.5 44.5,-142.5 221.5,-142.5 221.5,-44.5 44.5,-44.5"/>
</g>
<!-- playlist_track -->
<g id="node2" class="node">
<title>playlist_track</title>
<polygon fill="#efefef" stroke="transparent" points="53,-325.5 53,-360.5 213,-360.5 213,-325.5 53,-325.5"/>
<polygon fill="none" stroke="#000000" points="53,-325.5 53,-360.5 213,-360.5 213,-325.5 53,-325.5"/>
<text text-anchor="start" x="59.9896" y="-338.3" font-family="Arial Bold" font-size="18.00" fill="#000000">playlist_track</text>
<text text-anchor="start" x="163.9936" y="-338.3" font-family="Arial" font-size="14.00" fill="#000000"> </text>
<text text-anchor="start" x="167.8842" y="-338.3" font-family="Arial" font-size="14.00" fill="#666666">[table]</text>
<polygon fill="none" stroke="#000000" points="53,-295.5 53,-325.5 213,-325.5 213,-295.5 53,-295.5"/>
<text text-anchor="start" x="60" y="-306.9" font-family="Arial" font-size="14.00" fill="#000000">PlaylistId </text>
<text text-anchor="start" x="119.8934" y="-306.9" font-family="Arial" font-size="14.00" fill="#666666">[INTEGER]</text>
<polygon fill="none" stroke="#000000" points="53,-265.5 53,-295.5 213,-295.5 213,-265.5 53,-265.5"/>
<text text-anchor="start" x="60" y="-276.9" font-family="Arial" font-size="14.00" fill="#000000">TrackId </text>
<text text-anchor="start" x="110.5596" y="-276.9" font-family="Arial" font-size="14.00" fill="#666666">[INTEGER]</text>
</g>
<!-- playlist_track&#45;&gt;playlists -->
<g id="edge1" class="edge">
<title>playlist_track:PlaylistId&#45;&gt;playlists:PlaylistId</title>
<path fill="none" stroke="#000000" d="M222.6912,-307.39C262.6216,-280.6501 265.4744,-90.5 220,-90.5"/>
<polygon fill="#000000" stroke="#000000" points="222.5217,-307.4443 211.6249,-306.2152 217.7609,-308.9722 213,-310.5 213,-310.5 213,-310.5 217.7609,-308.9722 214.3751,-314.7848 222.5217,-307.4443 222.5217,-307.4443"/>
<text text-anchor="start" x="220.066" y="-320.5" font-family="Arial" font-size="10.00" fill="#000000">FOREIGN KEY (PlaylistId) REFERENCES playlists (PlaylistId) ON UPDATE NO ACTION ON DELETE NO ACTION MATCH NONE</text>
</g>
</g>
</svg>
