<?xml version="1.0" encoding="UTF-8" standalone="no"?>
<!DOCTYPE svg PUBLIC "-//W3C//DTD SVG 1.1//EN"
 "http://www.w3.org/Graphics/SVG/1.1/DTD/svg11.dtd">
<!-- Generated by graphviz version 2.40.1 (20161225.0304)
 -->
<!-- Title: playlist_track Pages: 1 -->
<svg width="1340pt" height="622pt"
 viewBox="0.00 0.00 1340.00 622.00" xmlns="http://www.w3.org/2000/svg" xmlns:xlink="http://www.w3.org/1999/xlink">
<g id="graph0" class="graph" transform="scale(1 1) rotate(0) translate(4 618)">
<title>playlist_track</title>
<polygon fill="#ffffff" stroke="transparent" points="-4,4 -4,-618 1336,-618 1336,4 -4,4"/>
<!-- playlist_track -->
<g id="node1" class="node">
<title>playlist_track</title>
<polygon fill="#efefef" stroke="transparent" points="597,-532.5 597,-567.5 757,-567.5 757,-532.5 597,-532.5"/>
<polygon fill="none" stroke="#000000" points="597,-532.5 597,-567.5 757,-567.5 757,-532.5 597,-532.5"/>
<text text-anchor="start" x="603.9896" y="-545.3" font-family="Arial Bold" font-size="18.00" fill="#000000">playlist_track</text>
<text text-anchor="start" x="707.9936" y="-545.3" font-family="Arial" font-size="14.00" fill="#000000"> </text>
<text text-anchor="start" x="711.8842" y="-545.3" font-family="Arial" font-size="14.00" fill="#666666">[table]</text>
<polygon fill="none" stroke="#000000" points="597,-502.5 597,-532.5 757,-532.5 757,-502.5 597,-502.5"/>
<text text-anchor="start" x="604" y="-513.9" font-family="Arial" font-size="14.00" fill="#000000">PlaylistId </text>
<text text-anchor="start" x="663.8934" y="-513.9" font-family="Arial" font-size="14.00" fill="#666666">[INTEGER]</text>
<polygon fill="none" stroke="#000000" points="597,-472.5 597,-502.5 757,-502.5 757,-472.5 597,-472.5"/>
<text text-anchor="start" x="604" y="-483.9" font-family="Arial" font-size="14.00" fill="#000000">TrackId </text>
<text text-anchor="start" x="654.5596" y="-483.9" font-family="Arial" font-size="14.00" fill="#666666">[INTEGER]</text>
<polygon fill="none" stroke="#000000" stroke-width="3" points="595.5,-471.5 595.5,-569.5 758.5,-569.5 758.5,-471.5 595.5,-471.5"/>
</g>
<!-- playlists -->
<g id="node2" class="node">
<title>playlists</title>
<polygon fill="#efefef" stroke="transparent" points="444,-207.5 444,-242.5 618,-242.5 618,-207.5 444,-207.5"/>
<polygon fill="none" stroke="#000000" points="444,-207.5 444,-242.5 618,-242.5 618,-207.5 444,-207.5"/>
<text text-anchor="start" x="477.993" y="-220.3" font-family="Arial Bold" font-size="18.00" fill="#000000">playlists</text>
<text text-anchor="start" x="541.9902" y="-220.3" font-family="Arial" font-size="14.00" fill="#000000"> </text>
<text text-anchor="start" x="545.8808" y="-220.3" font-family="Arial" font-size="14.00" fill="#666666">[table]</text>
<polygon fill="none" stroke="#000000" points="444,-177.5 444,-207.5 618,-207.5 618,-177.5 444,-177.5"/>
<text text-anchor="start" x="451" y="-188.9" font-family="Arial" font-size="14.00" fill="#000000">PlaylistId </text>
<text text-anchor="start" x="510.8934" y="-188.9" font-family="Arial" font-size="14.00" fill="#666666">[INTEGER]</text>
<polygon fill="none" stroke="#000000" points="444,-147.5 444,-177.5 618,-177.5 618,-147.5 444,-147.5"/>
<text text-anchor="start" x="450.892" y="-158.9" font-family="Arial" font-size="14.00" fill="#000000">Name </text>
<text text-anchor="start" x="492.115" y="-158.9" font-family="Arial" font-size="14.00" fill="#666666">[NVARCHAR(120)]</text>
</g>
<!-- playlist_track&#45;&gt;playlists -->
<g id="edge1" class="edge">
<title>playlist_track:PlaylistId&#45;&gt;playlists:PlaylistId</title>
<path fill="none" stroke="#000000" d="M586.84,-516.8821C467.728,-501.2056 759.0705,-192.5 618,-192.5"/>
<polygon fill="#000000" stroke="#000000" points="587.0184,-516.8928 596.7268,-521.9917 592.0092,-517.1964 597,-517.5 597,-517.5 597,-517.5 592.0092,-517.1964 597.2732,-513.0083 587.0184,-516.8928 587.0184,-516.8928"/>
<text text-anchor="start" x="7.066" y="-527.5" font-family="Arial" font-size="10.00" fill="#000000">FOREIGN KEY (PlaylistId) REFERENCES playlists (PlaylistId) ON UPDATE NO ACTION ON DELETE NO ACTION MATCH NONE</text>
</g>
<!-- tracks -->
<g id="node3" class="node">
<title>tracks</title>
<polygon fill="#efefef" stroke="transparent" points="723,-312.5 723,-347.5 924,-347.5 924,-312.5 723,-312.5"/>
<polygon fill="none" stroke="#000000" points="723,-312.5 723,-347.5 924,-347.5 924,-312.5 723,-312.5"/>
<text text-anchor="start" x="778.4913" y="-325.3" font-family="Arial Bold" font-size="18.00" fill="#000000">tracks</text>
<text text-anchor="start" x="826.4919" y="-325.3" font-family="Arial" font-size="14.00" fill="#000000"> </text>
<text text-anchor="start" x="830.3825" y="-325.3" font-family="Arial" font-size="14.00" fill="#666666">[table]</text>
<polygon fill="none" stroke="#000000" points="723,-282.5 723,-312.5 924,-312.5 924,-282.5 723,-282.5"/>
<text text-anchor="start" x="730" y="-293.9" font-family="Arial" font-size="14.00" fill="#000000">TrackId </text>
<text text-anchor="start" x="780.5596" y="-293.9" font-family="Arial" font-size="14.00" fill="#666666">[INTEGER]</text>
<polygon fill="none" stroke="#000000" points="723,-252.5 723,-282.5 924,-282.5 924,-252.5 723,-252.5"/>
<text text-anchor="start" x="730" y="-263.9" font-family="Arial" font-size="14.00" fill="#000000">Name </text>
<text text-anchor="start" x="771.223" y="-263.9" font-family="Arial" font-size="14.00" fill="#666666">[NVARCHAR(200)]</text>
<polygon fill="none" stroke="#000000" points="723,-222.5 723,-252.5 924,-252.5 924,-222.5 723,-222.5"/>
<text text-anchor="start" x="730" y="-233.9" font-family="Arial" font-size="14.00" fill="#000000">AlbumId </text>
<text text-anchor="start" x="785.2328" y="-233.9" font-family="Arial" font-size="14.00" fill="#666666">[INTEGER]</text>
<polygon fill="none" stroke="#000000" points="723,-192.5 723,-222.5 924,-222.5 924,-192.5 723,-192.5"/>
<text text-anchor="start" x="730" y="-203.9" font-family="Arial" font-size="14.00" fill="#000000">MediaTypeId </text>
<text text-anchor="start" x="814.7966" y="-203.9" font-family="Arial" font-size="14.00" fill="#666666">[INTEGER]</text>
<polygon fill="none" stroke="#000000" points="723,-162.5 723,-192.5 924,-192.5 924,-162.5 723,-162.5"/>
<text text-anchor="start" x="730" y="-173.9" font-family="Arial" font-size="14.00" fill="#000000">GenreId </text>
<text text-anchor="start" x="784.4628" y="-173.9" font-family="Arial" font-size="14.00" fill="#666666">[INTEGER]</text>
<polygon fill="none" stroke="#000000" points="723,-132.5 723,-162.5 924,-162.5 924,-132.5 723,-132.5"/>
<text text-anchor="start" x="729.7791" y="-143.9" font-family="Arial" font-size="14.00" fill="#000000">Composer </text>
<text text-anchor="start" x="798.2279" y="-143.9" font-family="Arial" font-size="14.00" fill="#666666">[NVARCHAR(220)]</text>
<polygon fill="none" stroke="#000000" points="723,-102.5 723,-132.5 924,-132.5 924,-102.5 723,-102.5"/>
<text text-anchor="start" x="730" y="-113.9" font-family="Arial" font-size="14.00" fill="#000000">Milliseconds </text>
<text text-anchor="start" x="810.108" y="-113.9" font-family="Arial" font-size="14.00" fill="#666666">[INTEGER]</text>
<polygon fill="none" stroke="#000000" points="723,-72.5 723,-102.5 924,-102.5 924,-72.5 723,-72.5"/>
<text text-anchor="start" x="730" y="-83.9" font-family="Arial" font-size="14.00" fill="#000000">Bytes </text>
<text text-anchor="start" x="768.9004" y="-83.9" font-family="Arial" font-size="14.00" fill="#666666">[INTEGER]</text>
<polygon fill="none" stroke="#000000" points="723,-42.5 723,-72.5 924,-72.5 924,-42.5 723,-42.5"/>
<text text-anchor="start" x="730" y="-53.9" font-family="Arial" font-size="14.00" fill="#000000">UnitPrice </text>
<text text-anchor="start" x="790.6634" y="-53.9" font-family="Arial" font-size="14.00" fill="#666666">[NUMERIC(10,2)]</text>
</g>
<!-- playlist_track&#45;&gt;tracks -->
<g id="edge2" class="edge">
<title>playlist_track:TrackId&#45;&gt;tracks:TrackId</title>
<path fill="none" stroke="#000000" d="M766.9186,-484.8356C778.5146,-476.1305 765.3043,-447.8872 757,-427 748.8692,-406.5492 731.1308,-411.4508 723,-391 707.6473,-352.3845 681.4444,-297.5 723,-297.5"/>
<polygon fill="#000000" stroke="#000000" points="766.6576,-484.9057 755.8325,-483.1541 761.8288,-486.2028 757,-487.5 757,-487.5 757,-487.5 761.8288,-486.2028 758.1675,-491.8459 766.6576,-484.9057 766.6576,-484.9057"/>
<text text-anchor="start" x="764.1765" y="-497.5" font-family="Arial" font-size="10.00" fill="#000000">FOREIGN KEY (TrackId) REFERENCES tracks (TrackId) ON UPDATE NO ACTION ON DELETE NO ACTION MATCH NONE</text>
</g>
</g>
</svg>
