<?xml version="1.0" encoding="UTF-8" standalone="no"?>
<!DOCTYPE svg PUBLIC "-//W3C//DTD SVG 1.1//EN"
 "http://www.w3.org/Graphics/SVG/1.1/DTD/svg11.dtd">
<!-- Generated by graphviz version 2.40.1 (20161225.0304)
 -->
<!-- Title: chinook.db Pages: 1 -->
<svg width="1963pt" height="1860pt"
 viewBox="0.00 0.00 1963.00 1860.00" xmlns="http://www.w3.org/2000/svg" xmlns:xlink="http://www.w3.org/1999/xlink">
<g id="graph0" class="graph" transform="scale(1 1) rotate(0) translate(4 1856)">
<title>chinook.db</title>
<polygon fill="#ffffff" stroke="transparent" points="-4,4 -4,-1856 1959,-1856 1959,4 -4,4"/>
<!-- albums -->
<g id="node1" class="node">
<title>albums</title>
<polygon fill="#efefef" stroke="transparent" points="839,-889.5 839,-924.5 1002,-924.5 1002,-889.5 839,-889.5"/>
<polygon fill="none" stroke="#000000" points="839,-889.5 839,-924.5 1002,-924.5 1002,-889.5 839,-889.5"/>
<text text-anchor="start" x="870.4891" y="-902.3" font-family="Arial Bold" font-size="18.00" fill="#000000">albums</text>
<text text-anchor="start" x="928.4941" y="-902.3" font-family="Arial" font-size="14.00" fill="#000000"> </text>
<text text-anchor="start" x="932.3847" y="-902.3" font-family="Arial" font-size="14.00" fill="#666666">[table]</text>
<polygon fill="none" stroke="#000000" points="839,-859.5 839,-889.5 1002,-889.5 1002,-859.5 839,-859.5"/>
<text text-anchor="start" x="846" y="-870.9" font-family="Arial" font-size="14.00" fill="#000000">AlbumId </text>
<text text-anchor="start" x="901.2328" y="-870.9" font-family="Arial" font-size="14.00" fill="#666666">[INTEGER]</text>
<polygon fill="none" stroke="#000000" points="839,-829.5 839,-859.5 1002,-859.5 1002,-829.5 839,-829.5"/>
<text text-anchor="start" x="845.8387" y="-840.9" font-family="Arial" font-size="14.00" fill="#000000">Title </text>
<text text-anchor="start" x="876.1683" y="-840.9" font-family="Arial" font-size="14.00" fill="#666666">[NVARCHAR(160)]</text>
<polygon fill="none" stroke="#000000" points="839,-799.5 839,-829.5 1002,-829.5 1002,-799.5 839,-799.5"/>
<text text-anchor="start" x="846" y="-810.9" font-family="Arial" font-size="14.00" fill="#000000">ArtistId </text>
<text text-anchor="start" x="893.4488" y="-810.9" font-family="Arial" font-size="14.00" fill="#666666">[INTEGER]</text>
</g>
<!-- artists -->
<g id="node2" class="node">
<title>artists</title>
<polygon fill="#efefef" stroke="transparent" points="836,-297.5 836,-332.5 1010,-332.5 1010,-297.5 836,-297.5"/>
<polygon fill="none" stroke="#000000" points="836,-297.5 836,-332.5 1010,-332.5 1010,-297.5 836,-297.5"/>
<text text-anchor="start" x="877.9931" y="-310.3" font-family="Arial Bold" font-size="18.00" fill="#000000">artists</text>
<text text-anchor="start" x="925.9901" y="-310.3" font-family="Arial" font-size="14.00" fill="#000000"> </text>
<text text-anchor="start" x="929.8807" y="-310.3" font-family="Arial" font-size="14.00" fill="#666666">[table]</text>
<polygon fill="none" stroke="#000000" points="836,-267.5 836,-297.5 1010,-297.5 1010,-267.5 836,-267.5"/>
<text text-anchor="start" x="843" y="-278.9" font-family="Arial" font-size="14.00" fill="#000000">ArtistId </text>
<text text-anchor="start" x="890.4488" y="-278.9" font-family="Arial" font-size="14.00" fill="#666666">[INTEGER]</text>
<polygon fill="none" stroke="#000000" points="836,-237.5 836,-267.5 1010,-267.5 1010,-237.5 836,-237.5"/>
<text text-anchor="start" x="842.892" y="-248.9" font-family="Arial" font-size="14.00" fill="#000000">Name </text>
<text text-anchor="start" x="884.115" y="-248.9" font-family="Arial" font-size="14.00" fill="#666666">[NVARCHAR(120)]</text>
</g>
<!-- albums&#45;&gt;artists -->
<g id="edge1" class="edge">
<title>albums:ArtistId&#45;&gt;artists:ArtistId</title>
<path fill="none" stroke="#000000" d="M920.5588,-789.3257C910.2219,-661.4621 722.7524,-282.5 836,-282.5"/>
<polygon fill="#000000" stroke="#000000" points="920.5667,-789.5094 916.5042,-799.695 920.7833,-794.5047 921,-799.5 921,-799.5 921,-799.5 920.7833,-794.5047 925.4958,-799.305 920.5667,-789.5094 920.5667,-789.5094"/>
<text text-anchor="start" x="357.3995" y="-809.5" font-family="Arial" font-size="10.00" fill="#000000">FOREIGN KEY (ArtistId) REFERENCES artists (ArtistId) ON UPDATE NO ACTION ON DELETE NO ACTION MATCH NONE</text>
</g>
<!-- customers -->
<g id="node3" class="node">
<title>customers</title>
<polygon fill="#efefef" stroke="transparent" points="533,-1039.5 533,-1074.5 734,-1074.5 734,-1039.5 533,-1039.5"/>
<polygon fill="none" stroke="#000000" points="533,-1039.5 533,-1074.5 734,-1074.5 734,-1039.5 533,-1039.5"/>
<text text-anchor="start" x="570.989" y="-1052.3" font-family="Arial Bold" font-size="18.00" fill="#000000">customers</text>
<text text-anchor="start" x="653.9942" y="-1052.3" font-family="Arial" font-size="14.00" fill="#000000"> </text>
<text text-anchor="start" x="657.8848" y="-1052.3" font-family="Arial" font-size="14.00" fill="#666666">[table]</text>
<polygon fill="none" stroke="#000000" points="533,-1009.5 533,-1039.5 734,-1039.5 734,-1009.5 533,-1009.5"/>
<text text-anchor="start" x="540" y="-1020.9" font-family="Arial" font-size="14.00" fill="#000000">CustomerId </text>
<text text-anchor="start" x="616.23" y="-1020.9" font-family="Arial" font-size="14.00" fill="#666666">[INTEGER]</text>
<polygon fill="none" stroke="#000000" points="533,-979.5 533,-1009.5 734,-1009.5 734,-979.5 533,-979.5"/>
<text text-anchor="start" x="540" y="-990.9" font-family="Arial" font-size="14.00" fill="#000000">FirstName </text>
<text text-anchor="start" x="608.4334" y="-990.9" font-family="Arial" font-size="14.00" fill="#666666">[NVARCHAR(40)]</text>
<polygon fill="none" stroke="#000000" points="533,-949.5 533,-979.5 734,-979.5 734,-949.5 533,-949.5"/>
<text text-anchor="start" x="540" y="-960.9" font-family="Arial" font-size="14.00" fill="#000000">LastName </text>
<text text-anchor="start" x="607.6788" y="-960.9" font-family="Arial" font-size="14.00" fill="#666666">[NVARCHAR(20)]</text>
<polygon fill="none" stroke="#000000" points="533,-919.5 533,-949.5 734,-949.5 734,-919.5 533,-919.5"/>
<text text-anchor="start" x="540" y="-930.9" font-family="Arial" font-size="14.00" fill="#000000">Company </text>
<text text-anchor="start" x="603.7882" y="-930.9" font-family="Arial" font-size="14.00" fill="#666666">[NVARCHAR(80)]</text>
<polygon fill="none" stroke="#000000" points="533,-889.5 533,-919.5 734,-919.5 734,-889.5 533,-889.5"/>
<text text-anchor="start" x="540" y="-900.9" font-family="Arial" font-size="14.00" fill="#000000">Address </text>
<text text-anchor="start" x="595.2356" y="-900.9" font-family="Arial" font-size="14.00" fill="#666666">[NVARCHAR(70)]</text>
<polygon fill="none" stroke="#000000" points="533,-859.5 533,-889.5 734,-889.5 734,-859.5 533,-859.5"/>
<text text-anchor="start" x="540" y="-870.9" font-family="Arial" font-size="14.00" fill="#000000">City </text>
<text text-anchor="start" x="567.9944" y="-870.9" font-family="Arial" font-size="14.00" fill="#666666">[NVARCHAR(40)]</text>
<polygon fill="none" stroke="#000000" points="533,-829.5 533,-859.5 734,-859.5 734,-829.5 533,-829.5"/>
<text text-anchor="start" x="540" y="-840.9" font-family="Arial" font-size="14.00" fill="#000000">State </text>
<text text-anchor="start" x="576.5736" y="-840.9" font-family="Arial" font-size="14.00" fill="#666666">[NVARCHAR(40)]</text>
<polygon fill="none" stroke="#000000" points="533,-799.5 533,-829.5 734,-829.5 734,-799.5 533,-799.5"/>
<text text-anchor="start" x="540" y="-810.9" font-family="Arial" font-size="14.00" fill="#000000">Country </text>
<text text-anchor="start" x="592.8962" y="-810.9" font-family="Arial" font-size="14.00" fill="#666666">[NVARCHAR(40)]</text>
<polygon fill="none" stroke="#000000" points="533,-769.5 533,-799.5 734,-799.5 734,-769.5 533,-769.5"/>
<text text-anchor="start" x="539.7728" y="-780.9" font-family="Arial" font-size="14.00" fill="#000000">PostalCode </text>
<text text-anchor="start" x="616.0168" y="-780.9" font-family="Arial" font-size="14.00" fill="#666666">[NVARCHAR(10)]</text>
<polygon fill="none" stroke="#000000" points="533,-739.5 533,-769.5 734,-769.5 734,-739.5 533,-739.5"/>
<text text-anchor="start" x="540" y="-750.9" font-family="Arial" font-size="14.00" fill="#000000">Phone </text>
<text text-anchor="start" x="584.3576" y="-750.9" font-family="Arial" font-size="14.00" fill="#666666">[NVARCHAR(24)]</text>
<polygon fill="none" stroke="#000000" points="533,-709.5 533,-739.5 734,-739.5 734,-709.5 533,-709.5"/>
<text text-anchor="start" x="540" y="-720.9" font-family="Arial" font-size="14.00" fill="#000000">Fax </text>
<text text-anchor="start" x="567.2258" y="-720.9" font-family="Arial" font-size="14.00" fill="#666666">[NVARCHAR(24)]</text>
<polygon fill="none" stroke="#000000" points="533,-679.5 533,-709.5 734,-709.5 734,-679.5 533,-679.5"/>
<text text-anchor="start" x="540" y="-690.9" font-family="Arial" font-size="14.00" fill="#000000">Email </text>
<text text-anchor="start" x="578.8836" y="-690.9" font-family="Arial" font-size="14.00" fill="#666666">[NVARCHAR(60)]</text>
<polygon fill="none" stroke="#000000" points="533,-649.5 533,-679.5 734,-679.5 734,-649.5 533,-649.5"/>
<text text-anchor="start" x="540" y="-660.9" font-family="Arial" font-size="14.00" fill="#000000">SupportRepId </text>
<text text-anchor="start" x="630.2538" y="-660.9" font-family="Arial" font-size="14.00" fill="#666666">[INTEGER]</text>
</g>
<!-- employees -->
<g id="node4" class="node">
<title>employees</title>
<polygon fill="#efefef" stroke="transparent" points="531,-492.5 531,-527.5 732,-527.5 732,-492.5 531,-492.5"/>
<polygon fill="none" stroke="#000000" points="531,-492.5 531,-527.5 732,-527.5 732,-492.5 531,-492.5"/>
<text text-anchor="start" x="566.9829" y="-505.3" font-family="Arial Bold" font-size="18.00" fill="#000000">employees</text>
<text text-anchor="start" x="654.0003" y="-505.3" font-family="Arial" font-size="14.00" fill="#000000"> </text>
<text text-anchor="start" x="657.8909" y="-505.3" font-family="Arial" font-size="14.00" fill="#666666">[table]</text>
<polygon fill="none" stroke="#000000" points="531,-462.5 531,-492.5 732,-492.5 732,-462.5 531,-462.5"/>
<text text-anchor="start" x="538" y="-473.9" font-family="Arial" font-size="14.00" fill="#000000">EmployeeId </text>
<text text-anchor="start" x="615.798" y="-473.9" font-family="Arial" font-size="14.00" fill="#666666">[INTEGER]</text>
<polygon fill="none" stroke="#000000" points="531,-432.5 531,-462.5 732,-462.5 732,-432.5 531,-432.5"/>
<text text-anchor="start" x="538" y="-443.9" font-family="Arial" font-size="14.00" fill="#000000">LastName </text>
<text text-anchor="start" x="605.6788" y="-443.9" font-family="Arial" font-size="14.00" fill="#666666">[NVARCHAR(20)]</text>
<polygon fill="none" stroke="#000000" points="531,-402.5 531,-432.5 732,-432.5 732,-402.5 531,-402.5"/>
<text text-anchor="start" x="538" y="-413.9" font-family="Arial" font-size="14.00" fill="#000000">FirstName </text>
<text text-anchor="start" x="606.4334" y="-413.9" font-family="Arial" font-size="14.00" fill="#666666">[NVARCHAR(20)]</text>
<polygon fill="none" stroke="#000000" points="531,-372.5 531,-402.5 732,-402.5 732,-372.5 531,-372.5"/>
<text text-anchor="start" x="538" y="-383.9" font-family="Arial" font-size="14.00" fill="#000000">Title </text>
<text text-anchor="start" x="568.3296" y="-383.9" font-family="Arial" font-size="14.00" fill="#666666">[NVARCHAR(30)]</text>
<polygon fill="none" stroke="#000000" points="531,-342.5 531,-372.5 732,-372.5 732,-342.5 531,-342.5"/>
<text text-anchor="start" x="538" y="-353.9" font-family="Arial" font-size="14.00" fill="#000000">ReportsTo </text>
<text text-anchor="start" x="607.2314" y="-353.9" font-family="Arial" font-size="14.00" fill="#666666">[INTEGER]</text>
<polygon fill="none" stroke="#000000" points="531,-312.5 531,-342.5 732,-342.5 732,-312.5 531,-312.5"/>
<text text-anchor="start" x="538" y="-323.9" font-family="Arial" font-size="14.00" fill="#000000">BirthDate </text>
<text text-anchor="start" x="600.23" y="-323.9" font-family="Arial" font-size="14.00" fill="#666666">[DATETIME]</text>
<polygon fill="none" stroke="#000000" points="531,-282.5 531,-312.5 732,-312.5 732,-282.5 531,-282.5"/>
<text text-anchor="start" x="538" y="-293.9" font-family="Arial" font-size="14.00" fill="#000000">HireDate </text>
<text text-anchor="start" x="597.1094" y="-293.9" font-family="Arial" font-size="14.00" fill="#666666">[DATETIME]</text>
<polygon fill="none" stroke="#000000" points="531,-252.5 531,-282.5 732,-282.5 732,-252.5 531,-252.5"/>
<text text-anchor="start" x="538" y="-263.9" font-family="Arial" font-size="14.00" fill="#000000">Address </text>
<text text-anchor="start" x="593.2356" y="-263.9" font-family="Arial" font-size="14.00" fill="#666666">[NVARCHAR(70)]</text>
<polygon fill="none" stroke="#000000" points="531,-222.5 531,-252.5 732,-252.5 732,-222.5 531,-222.5"/>
<text text-anchor="start" x="538" y="-233.9" font-family="Arial" font-size="14.00" fill="#000000">City </text>
<text text-anchor="start" x="565.9944" y="-233.9" font-family="Arial" font-size="14.00" fill="#666666">[NVARCHAR(40)]</text>
<polygon fill="none" stroke="#000000" points="531,-192.5 531,-222.5 732,-222.5 732,-192.5 531,-192.5"/>
<text text-anchor="start" x="538" y="-203.9" font-family="Arial" font-size="14.00" fill="#000000">State </text>
<text text-anchor="start" x="574.5736" y="-203.9" font-family="Arial" font-size="14.00" fill="#666666">[NVARCHAR(40)]</text>
<polygon fill="none" stroke="#000000" points="531,-162.5 531,-192.5 732,-192.5 732,-162.5 531,-162.5"/>
<text text-anchor="start" x="538" y="-173.9" font-family="Arial" font-size="14.00" fill="#000000">Country </text>
<text text-anchor="start" x="590.8962" y="-173.9" font-family="Arial" font-size="14.00" fill="#666666">[NVARCHAR(40)]</text>
<polygon fill="none" stroke="#000000" points="531,-132.5 531,-162.5 732,-162.5 732,-132.5 531,-132.5"/>
<text text-anchor="start" x="537.7728" y="-143.9" font-family="Arial" font-size="14.00" fill="#000000">PostalCode </text>
<text text-anchor="start" x="614.0168" y="-143.9" font-family="Arial" font-size="14.00" fill="#666666">[NVARCHAR(10)]</text>
<polygon fill="none" stroke="#000000" points="531,-102.5 531,-132.5 732,-132.5 732,-102.5 531,-102.5"/>
<text text-anchor="start" x="538" y="-113.9" font-family="Arial" font-size="14.00" fill="#000000">Phone </text>
<text text-anchor="start" x="582.3576" y="-113.9" font-family="Arial" font-size="14.00" fill="#666666">[NVARCHAR(24)]</text>
<polygon fill="none" stroke="#000000" points="531,-72.5 531,-102.5 732,-102.5 732,-72.5 531,-72.5"/>
<text text-anchor="start" x="538" y="-83.9" font-family="Arial" font-size="14.00" fill="#000000">Fax </text>
<text text-anchor="start" x="565.2258" y="-83.9" font-family="Arial" font-size="14.00" fill="#666666">[NVARCHAR(24)]</text>
<polygon fill="none" stroke="#000000" points="531,-42.5 531,-72.5 732,-72.5 732,-42.5 531,-42.5"/>
<text text-anchor="start" x="538" y="-53.9" font-family="Arial" font-size="14.00" fill="#000000">Email </text>
<text text-anchor="start" x="576.8836" y="-53.9" font-family="Arial" font-size="14.00" fill="#666666">[NVARCHAR(60)]</text>
</g>
<!-- customers&#45;&gt;employees -->
<g id="edge2" class="edge">
<title>customers:SupportRepId&#45;&gt;employees:EmployeeId</title>
<path fill="none" stroke="#000000" d="M634.9407,-639.4387C643.5879,-597.0175 709.4454,-617.9651 732,-571 749.9898,-533.5402 773.5556,-477.5 732,-477.5"/>
<polygon fill="#000000" stroke="#000000" points="634.931,-639.5434 629.5195,-649.0811 634.4655,-644.5217 634,-649.5 634,-649.5 634,-649.5 634.4655,-644.5217 638.4805,-649.9189 634.931,-639.5434 634.931,-639.5434"/>
<text text-anchor="start" x="641.434" y="-659.5" font-family="Arial" font-size="10.00" fill="#000000">FOREIGN KEY (SupportRepId) REFERENCES employees (EmployeeId) ON UPDATE NO ACTION ON DELETE NO ACTION MATCH NONE</text>
</g>
<!-- employees&#45;&gt;employees -->
<g id="edge3" class="edge">
<title>employees:ReportsTo&#45;&gt;employees:EmployeeId</title>
<path fill="none" stroke="#000000" d="M633.1111,-382.7887C640.9834,-574.7828 640.613,-859 632,-859 623.2417,-859 623.0065,-677.174 631.2944,-492.769"/>
<polygon fill="#000000" stroke="#000000" points="633.1018,-382.5647 637.1767,-372.384 632.8912,-377.5691 632.6806,-372.5735 632.6806,-372.5735 632.6806,-372.5735 632.8912,-377.5691 628.1846,-372.763 633.1018,-382.5647 633.1018,-382.5647"/>
<text text-anchor="start" x="9.6226" y="-382.5735" font-family="Arial" font-size="10.00" fill="#000000">FOREIGN KEY (ReportsTo) REFERENCES employees (EmployeeId) ON UPDATE NO ACTION ON DELETE NO ACTION MATCH NONE</text>
</g>
<!-- genres -->
<g id="node5" class="node">
<title>genres</title>
<polygon fill="#efefef" stroke="transparent" points="1106,-874.5 1106,-909.5 1280,-909.5 1280,-874.5 1106,-874.5"/>
<polygon fill="none" stroke="#000000" points="1106,-874.5 1106,-909.5 1280,-909.5 1280,-874.5 1106,-874.5"/>
<text text-anchor="start" x="1144.4831" y="-887.3" font-family="Arial Bold" font-size="18.00" fill="#000000">genres</text>
<text text-anchor="start" x="1199.5001" y="-887.3" font-family="Arial" font-size="14.00" fill="#000000"> </text>
<text text-anchor="start" x="1203.3907" y="-887.3" font-family="Arial" font-size="14.00" fill="#666666">[table]</text>
<polygon fill="none" stroke="#000000" points="1106,-844.5 1106,-874.5 1280,-874.5 1280,-844.5 1106,-844.5"/>
<text text-anchor="start" x="1113" y="-855.9" font-family="Arial" font-size="14.00" fill="#000000">GenreId </text>
<text text-anchor="start" x="1167.4628" y="-855.9" font-family="Arial" font-size="14.00" fill="#666666">[INTEGER]</text>
<polygon fill="none" stroke="#000000" points="1106,-814.5 1106,-844.5 1280,-844.5 1280,-814.5 1106,-814.5"/>
<text text-anchor="start" x="1112.892" y="-825.9" font-family="Arial" font-size="14.00" fill="#000000">Name </text>
<text text-anchor="start" x="1154.115" y="-825.9" font-family="Arial" font-size="14.00" fill="#666666">[NVARCHAR(120)]</text>
</g>
<!-- invoices -->
<g id="node6" class="node">
<title>invoices</title>
<polygon fill="#efefef" stroke="transparent" points="631,-1466.5 631,-1501.5 869,-1501.5 869,-1466.5 631,-1466.5"/>
<polygon fill="none" stroke="#000000" points="631,-1466.5 631,-1501.5 869,-1501.5 869,-1466.5 631,-1466.5"/>
<text text-anchor="start" x="696.4881" y="-1479.3" font-family="Arial Bold" font-size="18.00" fill="#000000">invoices</text>
<text text-anchor="start" x="761.4951" y="-1479.3" font-family="Arial" font-size="14.00" fill="#000000"> </text>
<text text-anchor="start" x="765.3857" y="-1479.3" font-family="Arial" font-size="14.00" fill="#666666">[table]</text>
<polygon fill="none" stroke="#000000" points="631,-1436.5 631,-1466.5 869,-1466.5 869,-1436.5 631,-1436.5"/>
<text text-anchor="start" x="638" y="-1447.9" font-family="Arial" font-size="14.00" fill="#000000">InvoiceId </text>
<text text-anchor="start" x="697.9088" y="-1447.9" font-family="Arial" font-size="14.00" fill="#666666">[INTEGER]</text>
<polygon fill="none" stroke="#000000" points="631,-1406.5 631,-1436.5 869,-1436.5 869,-1406.5 631,-1406.5"/>
<text text-anchor="start" x="638" y="-1417.9" font-family="Arial" font-size="14.00" fill="#000000">CustomerId </text>
<text text-anchor="start" x="714.23" y="-1417.9" font-family="Arial" font-size="14.00" fill="#666666">[INTEGER]</text>
<polygon fill="none" stroke="#000000" points="631,-1376.5 631,-1406.5 869,-1406.5 869,-1376.5 631,-1376.5"/>
<text text-anchor="start" x="638" y="-1387.9" font-family="Arial" font-size="14.00" fill="#000000">InvoiceDate </text>
<text text-anchor="start" x="715.798" y="-1387.9" font-family="Arial" font-size="14.00" fill="#666666">[DATETIME]</text>
<polygon fill="none" stroke="#000000" points="631,-1346.5 631,-1376.5 869,-1376.5 869,-1346.5 631,-1346.5"/>
<text text-anchor="start" x="638" y="-1357.9" font-family="Arial" font-size="14.00" fill="#000000">BillingAddress </text>
<text text-anchor="start" x="730.5638" y="-1357.9" font-family="Arial" font-size="14.00" fill="#666666">[NVARCHAR(70)]</text>
<polygon fill="none" stroke="#000000" points="631,-1316.5 631,-1346.5 869,-1346.5 869,-1316.5 631,-1316.5"/>
<text text-anchor="start" x="638" y="-1327.9" font-family="Arial" font-size="14.00" fill="#000000">BillingCity </text>
<text text-anchor="start" x="703.3226" y="-1327.9" font-family="Arial" font-size="14.00" fill="#666666">[NVARCHAR(40)]</text>
<polygon fill="none" stroke="#000000" points="631,-1286.5 631,-1316.5 869,-1316.5 869,-1286.5 631,-1286.5"/>
<text text-anchor="start" x="638" y="-1297.9" font-family="Arial" font-size="14.00" fill="#000000">BillingState </text>
<text text-anchor="start" x="711.9018" y="-1297.9" font-family="Arial" font-size="14.00" fill="#666666">[NVARCHAR(40)]</text>
<polygon fill="none" stroke="#000000" points="631,-1256.5 631,-1286.5 869,-1286.5 869,-1256.5 631,-1256.5"/>
<text text-anchor="start" x="638" y="-1267.9" font-family="Arial" font-size="14.00" fill="#000000">BillingCountry </text>
<text text-anchor="start" x="728.2244" y="-1267.9" font-family="Arial" font-size="14.00" fill="#666666">[NVARCHAR(40)]</text>
<polygon fill="none" stroke="#000000" points="631,-1226.5 631,-1256.5 869,-1256.5 869,-1226.5 631,-1226.5"/>
<text text-anchor="start" x="637.6087" y="-1237.9" font-family="Arial" font-size="14.00" fill="#000000">BillingPostalCode </text>
<text text-anchor="start" x="751.1809" y="-1237.9" font-family="Arial" font-size="14.00" fill="#666666">[NVARCHAR(10)]</text>
<polygon fill="none" stroke="#000000" points="631,-1196.5 631,-1226.5 869,-1226.5 869,-1196.5 631,-1196.5"/>
<text text-anchor="start" x="638" y="-1207.9" font-family="Arial" font-size="14.00" fill="#000000">Total </text>
<text text-anchor="start" x="673.0056" y="-1207.9" font-family="Arial" font-size="14.00" fill="#666666">[NUMERIC(10,2)]</text>
</g>
<!-- invoices&#45;&gt;customers -->
<g id="edge4" class="edge">
<title>invoices:CustomerId&#45;&gt;customers:CustomerId</title>
<path fill="none" stroke="#000000" d="M620.9821,-1421.067C515.0612,-1411.5699 564.2012,-1248.1085 631,-1154 659.0688,-1114.4557 705.9312,-1157.5443 734,-1118 758.0531,-1084.1132 775.5556,-1024.5 734,-1024.5"/>
<polygon fill="#000000" stroke="#000000" points="621.0093,-1421.0681 630.8056,-1425.9958 626.0047,-1421.284 631,-1421.5 631,-1421.5 631,-1421.5 626.0047,-1421.284 631.1944,-1417.0042 621.0093,-1421.0681 621.0093,-1421.0681"/>
<text text-anchor="start" x="7.117" y="-1431.5" font-family="Arial" font-size="10.00" fill="#000000">FOREIGN KEY (CustomerId) REFERENCES customers (CustomerId) ON UPDATE NO ACTION ON DELETE NO ACTION MATCH NONE</text>
</g>
<!-- invoice_items -->
<g id="node7" class="node">
<title>invoice_items</title>
<polygon fill="#efefef" stroke="transparent" points="784,-1773.5 784,-1808.5 968,-1808.5 968,-1773.5 784,-1773.5"/>
<polygon fill="none" stroke="#000000" points="784,-1773.5 784,-1808.5 968,-1808.5 968,-1773.5 784,-1773.5"/>
<text text-anchor="start" x="800.4876" y="-1786.3" font-family="Arial Bold" font-size="18.00" fill="#000000">invoice_items</text>
<text text-anchor="start" x="909.4956" y="-1786.3" font-family="Arial" font-size="14.00" fill="#000000"> </text>
<text text-anchor="start" x="913.3862" y="-1786.3" font-family="Arial" font-size="14.00" fill="#666666">[table]</text>
<polygon fill="none" stroke="#000000" points="784,-1743.5 784,-1773.5 968,-1773.5 968,-1743.5 784,-1743.5"/>
<text text-anchor="start" x="791" y="-1754.9" font-family="Arial" font-size="14.00" fill="#000000">InvoiceLineId </text>
<text text-anchor="start" x="877.3632" y="-1754.9" font-family="Arial" font-size="14.00" fill="#666666">[INTEGER]</text>
<polygon fill="none" stroke="#000000" points="784,-1713.5 784,-1743.5 968,-1743.5 968,-1713.5 784,-1713.5"/>
<text text-anchor="start" x="791" y="-1724.9" font-family="Arial" font-size="14.00" fill="#000000">InvoiceId </text>
<text text-anchor="start" x="850.9088" y="-1724.9" font-family="Arial" font-size="14.00" fill="#666666">[INTEGER]</text>
<polygon fill="none" stroke="#000000" points="784,-1683.5 784,-1713.5 968,-1713.5 968,-1683.5 784,-1683.5"/>
<text text-anchor="start" x="791" y="-1694.9" font-family="Arial" font-size="14.00" fill="#000000">TrackId </text>
<text text-anchor="start" x="841.5596" y="-1694.9" font-family="Arial" font-size="14.00" fill="#666666">[INTEGER]</text>
<polygon fill="none" stroke="#000000" points="784,-1653.5 784,-1683.5 968,-1683.5 968,-1653.5 784,-1653.5"/>
<text text-anchor="start" x="790.8408" y="-1664.9" font-family="Arial" font-size="14.00" fill="#000000">UnitPrice </text>
<text text-anchor="start" x="851.5042" y="-1664.9" font-family="Arial" font-size="14.00" fill="#666666">[NUMERIC(10,2)]</text>
<polygon fill="none" stroke="#000000" points="784,-1623.5 784,-1653.5 968,-1653.5 968,-1623.5 784,-1623.5"/>
<text text-anchor="start" x="791" y="-1634.9" font-family="Arial" font-size="14.00" fill="#000000">Quantity </text>
<text text-anchor="start" x="847.0168" y="-1634.9" font-family="Arial" font-size="14.00" fill="#666666">[INTEGER]</text>
</g>
<!-- invoice_items&#45;&gt;invoices -->
<g id="edge6" class="edge">
<title>invoice_items:InvoiceId&#45;&gt;invoices:InvoiceId</title>
<path fill="none" stroke="#000000" d="M773.7581,-1727.6302C721.7914,-1718.1045 749.8462,-1632.5559 784,-1581 806.6577,-1546.7978 846.3423,-1579.2022 869,-1545 891.9499,-1510.3566 910.5556,-1451.5 869,-1451.5"/>
<polygon fill="#000000" stroke="#000000" points="774.0359,-1727.6537 783.6192,-1732.9839 779.0179,-1728.0768 784,-1728.5 784,-1728.5 784,-1728.5 779.0179,-1728.0768 784.3808,-1724.0161 774.0359,-1727.6537 774.0359,-1727.6537"/>
<text text-anchor="start" x="192.7745" y="-1738.5" font-family="Arial" font-size="10.00" fill="#000000">FOREIGN KEY (InvoiceId) REFERENCES invoices (InvoiceId) ON UPDATE NO ACTION ON DELETE NO ACTION MATCH NONE</text>
</g>
<!-- tracks -->
<g id="node11" class="node">
<title>tracks</title>
<polygon fill="#efefef" stroke="transparent" points="1032,-1466.5 1032,-1501.5 1233,-1501.5 1233,-1466.5 1032,-1466.5"/>
<polygon fill="none" stroke="#000000" points="1032,-1466.5 1032,-1501.5 1233,-1501.5 1233,-1466.5 1032,-1466.5"/>
<text text-anchor="start" x="1087.4913" y="-1479.3" font-family="Arial Bold" font-size="18.00" fill="#000000">tracks</text>
<text text-anchor="start" x="1135.4919" y="-1479.3" font-family="Arial" font-size="14.00" fill="#000000"> </text>
<text text-anchor="start" x="1139.3825" y="-1479.3" font-family="Arial" font-size="14.00" fill="#666666">[table]</text>
<polygon fill="none" stroke="#000000" points="1032,-1436.5 1032,-1466.5 1233,-1466.5 1233,-1436.5 1032,-1436.5"/>
<text text-anchor="start" x="1039" y="-1447.9" font-family="Arial" font-size="14.00" fill="#000000">TrackId </text>
<text text-anchor="start" x="1089.5596" y="-1447.9" font-family="Arial" font-size="14.00" fill="#666666">[INTEGER]</text>
<polygon fill="none" stroke="#000000" points="1032,-1406.5 1032,-1436.5 1233,-1436.5 1233,-1406.5 1032,-1406.5"/>
<text text-anchor="start" x="1039" y="-1417.9" font-family="Arial" font-size="14.00" fill="#000000">Name </text>
<text text-anchor="start" x="1080.223" y="-1417.9" font-family="Arial" font-size="14.00" fill="#666666">[NVARCHAR(200)]</text>
<polygon fill="none" stroke="#000000" points="1032,-1376.5 1032,-1406.5 1233,-1406.5 1233,-1376.5 1032,-1376.5"/>
<text text-anchor="start" x="1039" y="-1387.9" font-family="Arial" font-size="14.00" fill="#000000">AlbumId </text>
<text text-anchor="start" x="1094.2328" y="-1387.9" font-family="Arial" font-size="14.00" fill="#666666">[INTEGER]</text>
<polygon fill="none" stroke="#000000" points="1032,-1346.5 1032,-1376.5 1233,-1376.5 1233,-1346.5 1032,-1346.5"/>
<text text-anchor="start" x="1039" y="-1357.9" font-family="Arial" font-size="14.00" fill="#000000">MediaTypeId </text>
<text text-anchor="start" x="1123.7966" y="-1357.9" font-family="Arial" font-size="14.00" fill="#666666">[INTEGER]</text>
<polygon fill="none" stroke="#000000" points="1032,-1316.5 1032,-1346.5 1233,-1346.5 1233,-1316.5 1032,-1316.5"/>
<text text-anchor="start" x="1039" y="-1327.9" font-family="Arial" font-size="14.00" fill="#000000">GenreId </text>
<text text-anchor="start" x="1093.4628" y="-1327.9" font-family="Arial" font-size="14.00" fill="#666666">[INTEGER]</text>
<polygon fill="none" stroke="#000000" points="1032,-1286.5 1032,-1316.5 1233,-1316.5 1233,-1286.5 1032,-1286.5"/>
<text text-anchor="start" x="1038.7791" y="-1297.9" font-family="Arial" font-size="14.00" fill="#000000">Composer </text>
<text text-anchor="start" x="1107.2279" y="-1297.9" font-family="Arial" font-size="14.00" fill="#666666">[NVARCHAR(220)]</text>
<polygon fill="none" stroke="#000000" points="1032,-1256.5 1032,-1286.5 1233,-1286.5 1233,-1256.5 1032,-1256.5"/>
<text text-anchor="start" x="1039" y="-1267.9" font-family="Arial" font-size="14.00" fill="#000000">Milliseconds </text>
<text text-anchor="start" x="1119.108" y="-1267.9" font-family="Arial" font-size="14.00" fill="#666666">[INTEGER]</text>
<polygon fill="none" stroke="#000000" points="1032,-1226.5 1032,-1256.5 1233,-1256.5 1233,-1226.5 1032,-1226.5"/>
<text text-anchor="start" x="1039" y="-1237.9" font-family="Arial" font-size="14.00" fill="#000000">Bytes </text>
<text text-anchor="start" x="1077.9004" y="-1237.9" font-family="Arial" font-size="14.00" fill="#666666">[INTEGER]</text>
<polygon fill="none" stroke="#000000" points="1032,-1196.5 1032,-1226.5 1233,-1226.5 1233,-1196.5 1032,-1196.5"/>
<text text-anchor="start" x="1039" y="-1207.9" font-family="Arial" font-size="14.00" fill="#000000">UnitPrice </text>
<text text-anchor="start" x="1099.6634" y="-1207.9" font-family="Arial" font-size="14.00" fill="#666666">[NUMERIC(10,2)]</text>
</g>
<!-- invoice_items&#45;&gt;tracks -->
<g id="edge5" class="edge">
<title>invoice_items:TrackId&#45;&gt;tracks:TrackId</title>
<path fill="none" stroke="#000000" d="M978.1217,-1697.747C1071.1965,-1682.8366 922.2516,-1451.5 1032,-1451.5"/>
<polygon fill="#000000" stroke="#000000" points="977.9724,-1697.758 967.6661,-1694.0124 972.9862,-1698.129 968,-1698.5 968,-1698.5 968,-1698.5 972.9862,-1698.129 968.3339,-1702.9876 977.9724,-1697.758 977.9724,-1697.758"/>
<text text-anchor="start" x="400.1765" y="-1708.5" font-family="Arial" font-size="10.00" fill="#000000">FOREIGN KEY (TrackId) REFERENCES tracks (TrackId) ON UPDATE NO ACTION ON DELETE NO ACTION MATCH NONE</text>
</g>
<!-- media_types -->
<g id="node8" class="node">
<title>media_types</title>
<polygon fill="#efefef" stroke="transparent" points="1384,-874.5 1384,-909.5 1558,-909.5 1558,-874.5 1384,-874.5"/>
<polygon fill="none" stroke="#000000" points="1384,-874.5 1384,-909.5 1558,-909.5 1558,-874.5 1384,-874.5"/>
<text text-anchor="start" x="1398.9787" y="-887.3" font-family="Arial Bold" font-size="18.00" fill="#000000">media_types</text>
<text text-anchor="start" x="1501.0045" y="-887.3" font-family="Arial" font-size="14.00" fill="#000000"> </text>
<text text-anchor="start" x="1504.8951" y="-887.3" font-family="Arial" font-size="14.00" fill="#666666">[table]</text>
<polygon fill="none" stroke="#000000" points="1384,-844.5 1384,-874.5 1558,-874.5 1558,-844.5 1384,-844.5"/>
<text text-anchor="start" x="1391" y="-855.9" font-family="Arial" font-size="14.00" fill="#000000">MediaTypeId </text>
<text text-anchor="start" x="1475.7966" y="-855.9" font-family="Arial" font-size="14.00" fill="#666666">[INTEGER]</text>
<polygon fill="none" stroke="#000000" points="1384,-814.5 1384,-844.5 1558,-844.5 1558,-814.5 1384,-814.5"/>
<text text-anchor="start" x="1390.892" y="-825.9" font-family="Arial" font-size="14.00" fill="#000000">Name </text>
<text text-anchor="start" x="1432.115" y="-825.9" font-family="Arial" font-size="14.00" fill="#666666">[NVARCHAR(120)]</text>
</g>
<!-- playlists -->
<g id="node9" class="node">
<title>playlists</title>
<polygon fill="#efefef" stroke="transparent" points="1337,-1361.5 1337,-1396.5 1511,-1396.5 1511,-1361.5 1337,-1361.5"/>
<polygon fill="none" stroke="#000000" points="1337,-1361.5 1337,-1396.5 1511,-1396.5 1511,-1361.5 1337,-1361.5"/>
<text text-anchor="start" x="1370.993" y="-1374.3" font-family="Arial Bold" font-size="18.00" fill="#000000">playlists</text>
<text text-anchor="start" x="1434.9902" y="-1374.3" font-family="Arial" font-size="14.00" fill="#000000"> </text>
<text text-anchor="start" x="1438.8808" y="-1374.3" font-family="Arial" font-size="14.00" fill="#666666">[table]</text>
<polygon fill="none" stroke="#000000" points="1337,-1331.5 1337,-1361.5 1511,-1361.5 1511,-1331.5 1337,-1331.5"/>
<text text-anchor="start" x="1344" y="-1342.9" font-family="Arial" font-size="14.00" fill="#000000">PlaylistId </text>
<text text-anchor="start" x="1403.8934" y="-1342.9" font-family="Arial" font-size="14.00" fill="#666666">[INTEGER]</text>
<polygon fill="none" stroke="#000000" points="1337,-1301.5 1337,-1331.5 1511,-1331.5 1511,-1301.5 1337,-1301.5"/>
<text text-anchor="start" x="1343.892" y="-1312.9" font-family="Arial" font-size="14.00" fill="#000000">Name </text>
<text text-anchor="start" x="1385.115" y="-1312.9" font-family="Arial" font-size="14.00" fill="#666666">[NVARCHAR(120)]</text>
</g>
<!-- playlist_track -->
<g id="node10" class="node">
<title>playlist_track</title>
<polygon fill="#efefef" stroke="transparent" points="1198,-1728.5 1198,-1763.5 1358,-1763.5 1358,-1728.5 1198,-1728.5"/>
<polygon fill="none" stroke="#000000" points="1198,-1728.5 1198,-1763.5 1358,-1763.5 1358,-1728.5 1198,-1728.5"/>
<text text-anchor="start" x="1204.9896" y="-1741.3" font-family="Arial Bold" font-size="18.00" fill="#000000">playlist_track</text>
<text text-anchor="start" x="1308.9936" y="-1741.3" font-family="Arial" font-size="14.00" fill="#000000"> </text>
<text text-anchor="start" x="1312.8842" y="-1741.3" font-family="Arial" font-size="14.00" fill="#666666">[table]</text>
<polygon fill="none" stroke="#000000" points="1198,-1698.5 1198,-1728.5 1358,-1728.5 1358,-1698.5 1198,-1698.5"/>
<text text-anchor="start" x="1205" y="-1709.9" font-family="Arial" font-size="14.00" fill="#000000">PlaylistId </text>
<text text-anchor="start" x="1264.8934" y="-1709.9" font-family="Arial" font-size="14.00" fill="#666666">[INTEGER]</text>
<polygon fill="none" stroke="#000000" points="1198,-1668.5 1198,-1698.5 1358,-1698.5 1358,-1668.5 1198,-1668.5"/>
<text text-anchor="start" x="1205" y="-1679.9" font-family="Arial" font-size="14.00" fill="#000000">TrackId </text>
<text text-anchor="start" x="1255.5596" y="-1679.9" font-family="Arial" font-size="14.00" fill="#666666">[INTEGER]</text>
</g>
<!-- playlist_track&#45;&gt;playlists -->
<g id="edge8" class="edge">
<title>playlist_track:PlaylistId&#45;&gt;playlists:PlaylistId</title>
<path fill="none" stroke="#000000" d="M1368.2469,-1712.9529C1506.0139,-1697.1988 1177.2917,-1346.5 1337,-1346.5"/>
<polygon fill="#000000" stroke="#000000" points="1367.9858,-1712.9667 1357.76,-1709.0064 1362.9929,-1713.2334 1358,-1713.5 1358,-1713.5 1358,-1713.5 1362.9929,-1713.2334 1358.24,-1717.9936 1367.9858,-1712.9667 1367.9858,-1712.9667"/>
<text text-anchor="start" x="1365.066" y="-1723.5" font-family="Arial" font-size="10.00" fill="#000000">FOREIGN KEY (PlaylistId) REFERENCES playlists (PlaylistId) ON UPDATE NO ACTION ON DELETE NO ACTION MATCH NONE</text>
</g>
<!-- playlist_track&#45;&gt;tracks -->
<g id="edge7" class="edge">
<title>playlist_track:TrackId&#45;&gt;tracks:TrackId</title>
<path fill="none" stroke="#000000" d="M1188.3187,-1680.5861C1179.2776,-1672.0701 1193.7544,-1646.5291 1198,-1626 1205.9424,-1587.5956 1225.0576,-1583.4044 1233,-1545 1241.416,-1504.3056 1274.5556,-1451.5 1233,-1451.5"/>
<polygon fill="#000000" stroke="#000000" points="1188.4243,-1680.6178 1196.703,-1687.8091 1193.2122,-1682.0589 1198,-1683.5 1198,-1683.5 1198,-1683.5 1193.2122,-1682.0589 1199.297,-1679.1909 1188.4243,-1680.6178 1188.4243,-1680.6178"/>
<text text-anchor="start" x="1061.4265" y="-1667.5" font-family="Arial" font-size="10.00" fill="#000000">FOREIGN KEY (TrackId) REFERENCES tracks (TrackId) ON UPDATE NO ACTION ON DELETE NO ACTION MATCH NONE</text>
</g>
<!-- tracks&#45;&gt;albums -->
<g id="edge11" class="edge">
<title>tracks:AlbumId&#45;&gt;albums:AlbumId</title>
<path fill="none" stroke="#000000" d="M1021.835,-1389.9238C929.4917,-1358.7147 1113.3734,-874.5 1002,-874.5"/>
<polygon fill="#000000" stroke="#000000" points="1022.1181,-1389.9676 1031.3104,-1395.9469 1027.059,-1390.7338 1032,-1391.5 1032,-1391.5 1032,-1391.5 1027.059,-1390.7338 1032.6896,-1387.0531 1022.1181,-1389.9676 1022.1181,-1389.9676"/>
<text text-anchor="start" x="1039.0595" y="-1401.5" font-family="Arial" font-size="10.00" fill="#000000">FOREIGN KEY (AlbumId) REFERENCES albums (AlbumId) ON UPDATE NO ACTION ON DELETE NO ACTION MATCH NONE</text>
</g>
<!-- tracks&#45;&gt;genres -->
<g id="edge10" class="edge">
<title>tracks:GenreId&#45;&gt;genres:GenreId</title>
<path fill="none" stroke="#000000" d="M1243.2159,-1330.8426C1306.6263,-1322.0206 1253.906,-1226.2262 1233,-1154 1203.6193,-1052.4954 1135.3807,-1054.5046 1106,-953 1094.4459,-913.083 1064.4444,-859.5 1106,-859.5"/>
<polygon fill="#000000" stroke="#000000" points="1242.9794,-1330.8577 1232.711,-1327.0093 1237.9897,-1331.1789 1233,-1331.5 1233,-1331.5 1233,-1331.5 1237.9897,-1331.1789 1233.289,-1335.9907 1242.9794,-1330.8577 1242.9794,-1330.8577"/>
<text text-anchor="start" x="1240.4395" y="-1341.5" font-family="Arial" font-size="10.00" fill="#000000">FOREIGN KEY (GenreId) REFERENCES genres (GenreId) ON UPDATE NO ACTION ON DELETE NO ACTION MATCH NONE</text>
</g>
<!-- tracks&#45;&gt;media_types -->
<g id="edge9" class="edge">
<title>tracks:MediaTypeId&#45;&gt;media_types:MediaTypeId</title>
<path fill="none" stroke="#000000" d="M1243.2902,-1360.9244C1320.8549,-1351.5706 1234.8291,-1230.3515 1285,-1154 1299.4496,-1132.0101 1318.0715,-1140.3236 1332,-1118 1394.0349,-1018.5754 1266.8096,-859.5 1384,-859.5"/>
<polygon fill="#000000" stroke="#000000" points="1242.9844,-1360.9414 1232.7486,-1357.007 1237.9922,-1361.2207 1233,-1361.5 1233,-1361.5 1233,-1361.5 1237.9922,-1361.2207 1233.2514,-1365.993 1242.9844,-1360.9414 1242.9844,-1360.9414"/>
<text text-anchor="start" x="1239.7145" y="-1371.5" font-family="Arial" font-size="10.00" fill="#000000">FOREIGN KEY (MediaTypeId) REFERENCES media_types (MediaTypeId) ON UPDATE NO ACTION ON DELETE NO ACTION MATCH NONE</text>
</g>
<!-- sqlite_stat1 -->
<g id="node12" class="node">
<title>sqlite_stat1</title>
<polygon fill="#efefef" stroke="transparent" points="1463,-1743.5 1463,-1778.5 1610,-1778.5 1610,-1743.5 1463,-1743.5"/>
<polygon fill="none" stroke="#000000" points="1463,-1743.5 1463,-1778.5 1610,-1778.5 1610,-1743.5 1463,-1743.5"/>
<text text-anchor="start" x="1469.9786" y="-1756.3" font-family="Arial Bold" font-size="18.00" fill="#000000">sqlite_stat1</text>
<text text-anchor="start" x="1561.0046" y="-1756.3" font-family="Arial" font-size="14.00" fill="#000000"> </text>
<text text-anchor="start" x="1564.8952" y="-1756.3" font-family="Arial" font-size="14.00" fill="#666666">[table]</text>
<polygon fill="none" stroke="#000000" points="1463,-1713.5 1463,-1743.5 1610,-1743.5 1610,-1713.5 1463,-1713.5"/>
<text text-anchor="start" x="1470" y="-1724.9" font-family="Arial" font-size="14.00" fill="#000000">tbl </text>
<text text-anchor="start" x="1488.6704" y="-1724.9" font-family="Arial" font-size="14.00" fill="#666666">[]</text>
<polygon fill="none" stroke="#000000" points="1463,-1683.5 1463,-1713.5 1610,-1713.5 1610,-1683.5 1463,-1683.5"/>
<text text-anchor="start" x="1470" y="-1694.9" font-family="Arial" font-size="14.00" fill="#000000">idx </text>
<text text-anchor="start" x="1491.7798" y="-1694.9" font-family="Arial" font-size="14.00" fill="#666666">[]</text>
<polygon fill="none" stroke="#000000" points="1463,-1653.5 1463,-1683.5 1610,-1683.5 1610,-1653.5 1463,-1653.5"/>
<text text-anchor="start" x="1470" y="-1664.9" font-family="Arial" font-size="14.00" fill="#000000">stat </text>
<text text-anchor="start" x="1496.4544" y="-1664.9" font-family="Arial" font-size="14.00" fill="#666666">[]</text>
</g>
</g>
</svg>
