<?xml version="1.0" encoding="UTF-8" standalone="no"?>
<!DOCTYPE svg PUBLIC "-//W3C//DTD SVG 1.1//EN"
 "http://www.w3.org/Graphics/SVG/1.1/DTD/svg11.dtd">
<!-- Generated by graphviz version 2.40.1 (20161225.0304)
 -->
<!-- Title: tracks Pages: 1 -->
<svg width="1450pt" height="959pt"
 viewBox="0.00 0.00 1450.00 959.00" xmlns="http://www.w3.org/2000/svg" xmlns:xlink="http://www.w3.org/1999/xlink">
<g id="graph0" class="graph" transform="scale(1 1) rotate(0) translate(4 955)">
<title>tracks</title>
<polygon fill="#ffffff" stroke="transparent" points="-4,4 -4,-955 1446,-955 1446,4 -4,4"/>
<!-- tracks -->
<g id="node1" class="node">
<title>tracks</title>
<polygon fill="#efefef" stroke="transparent" points="587,-562.5 587,-597.5 788,-597.5 788,-562.5 587,-562.5"/>
<polygon fill="none" stroke="#000000" points="587,-562.5 587,-597.5 788,-597.5 788,-562.5 587,-562.5"/>
<text text-anchor="start" x="642.4913" y="-575.3" font-family="Arial Bold" font-size="18.00" fill="#000000">tracks</text>
<text text-anchor="start" x="690.4919" y="-575.3" font-family="Arial" font-size="14.00" fill="#000000"> </text>
<text text-anchor="start" x="694.3825" y="-575.3" font-family="Arial" font-size="14.00" fill="#666666">[table]</text>
<polygon fill="none" stroke="#000000" points="587,-532.5 587,-562.5 788,-562.5 788,-532.5 587,-532.5"/>
<text text-anchor="start" x="594" y="-543.9" font-family="Arial" font-size="14.00" fill="#000000">TrackId </text>
<text text-anchor="start" x="644.5596" y="-543.9" font-family="Arial" font-size="14.00" fill="#666666">[INTEGER]</text>
<polygon fill="none" stroke="#000000" points="587,-502.5 587,-532.5 788,-532.5 788,-502.5 587,-502.5"/>
<text text-anchor="start" x="594" y="-513.9" font-family="Arial" font-size="14.00" fill="#000000">Name </text>
<text text-anchor="start" x="635.223" y="-513.9" font-family="Arial" font-size="14.00" fill="#666666">[NVARCHAR(200)]</text>
<polygon fill="none" stroke="#000000" points="587,-472.5 587,-502.5 788,-502.5 788,-472.5 587,-472.5"/>
<text text-anchor="start" x="594" y="-483.9" font-family="Arial" font-size="14.00" fill="#000000">AlbumId </text>
<text text-anchor="start" x="649.2328" y="-483.9" font-family="Arial" font-size="14.00" fill="#666666">[INTEGER]</text>
<polygon fill="none" stroke="#000000" points="587,-442.5 587,-472.5 788,-472.5 788,-442.5 587,-442.5"/>
<text text-anchor="start" x="594" y="-453.9" font-family="Arial" font-size="14.00" fill="#000000">MediaTypeId </text>
<text text-anchor="start" x="678.7966" y="-453.9" font-family="Arial" font-size="14.00" fill="#666666">[INTEGER]</text>
<polygon fill="none" stroke="#000000" points="587,-412.5 587,-442.5 788,-442.5 788,-412.5 587,-412.5"/>
<text text-anchor="start" x="594" y="-423.9" font-family="Arial" font-size="14.00" fill="#000000">GenreId </text>
<text text-anchor="start" x="648.4628" y="-423.9" font-family="Arial" font-size="14.00" fill="#666666">[INTEGER]</text>
<polygon fill="none" stroke="#000000" points="587,-382.5 587,-412.5 788,-412.5 788,-382.5 587,-382.5"/>
<text text-anchor="start" x="593.7791" y="-393.9" font-family="Arial" font-size="14.00" fill="#000000">Composer </text>
<text text-anchor="start" x="662.2279" y="-393.9" font-family="Arial" font-size="14.00" fill="#666666">[NVARCHAR(220)]</text>
<polygon fill="none" stroke="#000000" points="587,-352.5 587,-382.5 788,-382.5 788,-352.5 587,-352.5"/>
<text text-anchor="start" x="594" y="-363.9" font-family="Arial" font-size="14.00" fill="#000000">Milliseconds </text>
<text text-anchor="start" x="674.108" y="-363.9" font-family="Arial" font-size="14.00" fill="#666666">[INTEGER]</text>
<polygon fill="none" stroke="#000000" points="587,-322.5 587,-352.5 788,-352.5 788,-322.5 587,-322.5"/>
<text text-anchor="start" x="594" y="-333.9" font-family="Arial" font-size="14.00" fill="#000000">Bytes </text>
<text text-anchor="start" x="632.9004" y="-333.9" font-family="Arial" font-size="14.00" fill="#666666">[INTEGER]</text>
<polygon fill="none" stroke="#000000" points="587,-292.5 587,-322.5 788,-322.5 788,-292.5 587,-292.5"/>
<text text-anchor="start" x="594" y="-303.9" font-family="Arial" font-size="14.00" fill="#000000">UnitPrice </text>
<text text-anchor="start" x="654.6634" y="-303.9" font-family="Arial" font-size="14.00" fill="#666666">[NUMERIC(10,2)]</text>
<polygon fill="none" stroke="#000000" stroke-width="3" points="585,-291.5 585,-599.5 789,-599.5 789,-291.5 585,-291.5"/>
</g>
<!-- albums -->
<g id="node4" class="node">
<title>albums</title>
<polygon fill="#efefef" stroke="transparent" points="334,-132.5 334,-167.5 497,-167.5 497,-132.5 334,-132.5"/>
<polygon fill="none" stroke="#000000" points="334,-132.5 334,-167.5 497,-167.5 497,-132.5 334,-132.5"/>
<text text-anchor="start" x="365.4891" y="-145.3" font-family="Arial Bold" font-size="18.00" fill="#000000">albums</text>
<text text-anchor="start" x="423.4941" y="-145.3" font-family="Arial" font-size="14.00" fill="#000000"> </text>
<text text-anchor="start" x="427.3847" y="-145.3" font-family="Arial" font-size="14.00" fill="#666666">[table]</text>
<polygon fill="none" stroke="#000000" points="334,-102.5 334,-132.5 497,-132.5 497,-102.5 334,-102.5"/>
<text text-anchor="start" x="341" y="-113.9" font-family="Arial" font-size="14.00" fill="#000000">AlbumId </text>
<text text-anchor="start" x="396.2328" y="-113.9" font-family="Arial" font-size="14.00" fill="#666666">[INTEGER]</text>
<polygon fill="none" stroke="#000000" points="334,-72.5 334,-102.5 497,-102.5 497,-72.5 334,-72.5"/>
<text text-anchor="start" x="340.8387" y="-83.9" font-family="Arial" font-size="14.00" fill="#000000">Title </text>
<text text-anchor="start" x="371.1683" y="-83.9" font-family="Arial" font-size="14.00" fill="#666666">[NVARCHAR(160)]</text>
<polygon fill="none" stroke="#000000" points="334,-42.5 334,-72.5 497,-72.5 497,-42.5 334,-42.5"/>
<text text-anchor="start" x="341" y="-53.9" font-family="Arial" font-size="14.00" fill="#000000">ArtistId </text>
<text text-anchor="start" x="388.4488" y="-53.9" font-family="Arial" font-size="14.00" fill="#666666">[INTEGER]</text>
</g>
<!-- tracks&#45;&gt;albums -->
<g id="edge3" class="edge">
<title>tracks:AlbumId&#45;&gt;albums:AlbumId</title>
<path fill="none" stroke="#000000" d="M576.9736,-485.5093C508.8874,-456.3863 577.9837,-117.5 497,-117.5"/>
<polygon fill="#000000" stroke="#000000" points="577.1915,-485.5525 586.1236,-491.9138 582.0957,-486.5262 587,-487.5 587,-487.5 587,-487.5 582.0957,-486.5262 587.8764,-483.0862 577.1915,-485.5525 577.1915,-485.5525"/>
<text text-anchor="start" x="7.0595" y="-497.5" font-family="Arial" font-size="10.00" fill="#000000">FOREIGN KEY (AlbumId) REFERENCES albums (AlbumId) ON UPDATE NO ACTION ON DELETE NO ACTION MATCH NONE</text>
</g>
<!-- media_types -->
<g id="node5" class="node">
<title>media_types</title>
<polygon fill="#efefef" stroke="transparent" points="601,-117.5 601,-152.5 775,-152.5 775,-117.5 601,-117.5"/>
<polygon fill="none" stroke="#000000" points="601,-117.5 601,-152.5 775,-152.5 775,-117.5 601,-117.5"/>
<text text-anchor="start" x="615.9787" y="-130.3" font-family="Arial Bold" font-size="18.00" fill="#000000">media_types</text>
<text text-anchor="start" x="718.0045" y="-130.3" font-family="Arial" font-size="14.00" fill="#000000"> </text>
<text text-anchor="start" x="721.8951" y="-130.3" font-family="Arial" font-size="14.00" fill="#666666">[table]</text>
<polygon fill="none" stroke="#000000" points="601,-87.5 601,-117.5 775,-117.5 775,-87.5 601,-87.5"/>
<text text-anchor="start" x="608" y="-98.9" font-family="Arial" font-size="14.00" fill="#000000">MediaTypeId </text>
<text text-anchor="start" x="692.7966" y="-98.9" font-family="Arial" font-size="14.00" fill="#666666">[INTEGER]</text>
<polygon fill="none" stroke="#000000" points="601,-57.5 601,-87.5 775,-87.5 775,-57.5 601,-57.5"/>
<text text-anchor="start" x="607.892" y="-68.9" font-family="Arial" font-size="14.00" fill="#000000">Name </text>
<text text-anchor="start" x="649.115" y="-68.9" font-family="Arial" font-size="14.00" fill="#666666">[NVARCHAR(120)]</text>
</g>
<!-- tracks&#45;&gt;media_types -->
<g id="edge4" class="edge">
<title>tracks:MediaTypeId&#45;&gt;media_types:MediaTypeId</title>
<path fill="none" stroke="#000000" d="M798.3735,-456.8886C878.6525,-446.9575 842.5694,-318.445 788,-247 735.7096,-178.5387 653.2904,-264.4613 601,-196 575.776,-162.9755 559.4444,-102.5 601,-102.5"/>
<polygon fill="#000000" stroke="#000000" points="797.9827,-456.9115 787.7352,-453.0078 792.9913,-457.2057 788,-457.5 788,-457.5 788,-457.5 792.9913,-457.2057 788.2648,-461.9922 797.9827,-456.9115 797.9827,-456.9115"/>
<text text-anchor="start" x="794.7145" y="-467.5" font-family="Arial" font-size="10.00" fill="#000000">FOREIGN KEY (MediaTypeId) REFERENCES media_types (MediaTypeId) ON UPDATE NO ACTION ON DELETE NO ACTION MATCH NONE</text>
</g>
<!-- genres -->
<g id="node6" class="node">
<title>genres</title>
<polygon fill="#efefef" stroke="transparent" points="879,-117.5 879,-152.5 1053,-152.5 1053,-117.5 879,-117.5"/>
<polygon fill="none" stroke="#000000" points="879,-117.5 879,-152.5 1053,-152.5 1053,-117.5 879,-117.5"/>
<text text-anchor="start" x="917.4831" y="-130.3" font-family="Arial Bold" font-size="18.00" fill="#000000">genres</text>
<text text-anchor="start" x="972.5001" y="-130.3" font-family="Arial" font-size="14.00" fill="#000000"> </text>
<text text-anchor="start" x="976.3907" y="-130.3" font-family="Arial" font-size="14.00" fill="#666666">[table]</text>
<polygon fill="none" stroke="#000000" points="879,-87.5 879,-117.5 1053,-117.5 1053,-87.5 879,-87.5"/>
<text text-anchor="start" x="886" y="-98.9" font-family="Arial" font-size="14.00" fill="#000000">GenreId </text>
<text text-anchor="start" x="940.4628" y="-98.9" font-family="Arial" font-size="14.00" fill="#666666">[INTEGER]</text>
<polygon fill="none" stroke="#000000" points="879,-57.5 879,-87.5 1053,-87.5 1053,-57.5 879,-57.5"/>
<text text-anchor="start" x="885.892" y="-68.9" font-family="Arial" font-size="14.00" fill="#000000">Name </text>
<text text-anchor="start" x="927.115" y="-68.9" font-family="Arial" font-size="14.00" fill="#666666">[NVARCHAR(120)]</text>
</g>
<!-- tracks&#45;&gt;genres -->
<g id="edge5" class="edge">
<title>tracks:GenreId&#45;&gt;genres:GenreId</title>
<path fill="none" stroke="#000000" d="M798.0591,-425.2511C857.5577,-396.5366 807.6622,-102.5 879,-102.5"/>
<polygon fill="#000000" stroke="#000000" points="797.7591,-425.3181 787.0181,-423.1084 792.8795,-426.409 788,-427.5 788,-427.5 788,-427.5 792.8795,-426.409 788.9819,-431.8916 797.7591,-425.3181 797.7591,-425.3181"/>
<text text-anchor="start" x="795.4395" y="-437.5" font-family="Arial" font-size="10.00" fill="#000000">FOREIGN KEY (GenreId) REFERENCES genres (GenreId) ON UPDATE NO ACTION ON DELETE NO ACTION MATCH NONE</text>
</g>
<!-- invoice_items -->
<g id="node2" class="node">
<title>invoice_items</title>
<polygon fill="#efefef" stroke="transparent" points="458,-872.5 458,-907.5 642,-907.5 642,-872.5 458,-872.5"/>
<polygon fill="none" stroke="#000000" points="458,-872.5 458,-907.5 642,-907.5 642,-872.5 458,-872.5"/>
<text text-anchor="start" x="474.4876" y="-885.3" font-family="Arial Bold" font-size="18.00" fill="#000000">invoice_items</text>
<text text-anchor="start" x="583.4956" y="-885.3" font-family="Arial" font-size="14.00" fill="#000000"> </text>
<text text-anchor="start" x="587.3862" y="-885.3" font-family="Arial" font-size="14.00" fill="#666666">[table]</text>
<polygon fill="none" stroke="#000000" points="458,-842.5 458,-872.5 642,-872.5 642,-842.5 458,-842.5"/>
<text text-anchor="start" x="465" y="-853.9" font-family="Arial" font-size="14.00" fill="#000000">InvoiceLineId </text>
<text text-anchor="start" x="551.3632" y="-853.9" font-family="Arial" font-size="14.00" fill="#666666">[INTEGER]</text>
<polygon fill="none" stroke="#000000" points="458,-812.5 458,-842.5 642,-842.5 642,-812.5 458,-812.5"/>
<text text-anchor="start" x="465" y="-823.9" font-family="Arial" font-size="14.00" fill="#000000">InvoiceId </text>
<text text-anchor="start" x="524.9088" y="-823.9" font-family="Arial" font-size="14.00" fill="#666666">[INTEGER]</text>
<polygon fill="none" stroke="#000000" points="458,-782.5 458,-812.5 642,-812.5 642,-782.5 458,-782.5"/>
<text text-anchor="start" x="465" y="-793.9" font-family="Arial" font-size="14.00" fill="#000000">TrackId </text>
<text text-anchor="start" x="515.5596" y="-793.9" font-family="Arial" font-size="14.00" fill="#666666">[INTEGER]</text>
<polygon fill="none" stroke="#000000" points="458,-752.5 458,-782.5 642,-782.5 642,-752.5 458,-752.5"/>
<text text-anchor="start" x="464.8408" y="-763.9" font-family="Arial" font-size="14.00" fill="#000000">UnitPrice </text>
<text text-anchor="start" x="525.5042" y="-763.9" font-family="Arial" font-size="14.00" fill="#666666">[NUMERIC(10,2)]</text>
<polygon fill="none" stroke="#000000" points="458,-722.5 458,-752.5 642,-752.5 642,-722.5 458,-722.5"/>
<text text-anchor="start" x="465" y="-733.9" font-family="Arial" font-size="14.00" fill="#000000">Quantity </text>
<text text-anchor="start" x="521.0168" y="-733.9" font-family="Arial" font-size="14.00" fill="#666666">[INTEGER]</text>
</g>
<!-- invoice_items&#45;&gt;tracks -->
<g id="edge1" class="edge">
<title>invoice_items:TrackId&#45;&gt;tracks:TrackId</title>
<path fill="none" stroke="#000000" d="M652.3456,-796.3572C690.1711,-787.0187 664.9923,-722.5291 642,-680 628.106,-654.3 600.894,-669.7 587,-644 566.6032,-606.2717 544.1111,-547.5 587,-547.5"/>
<polygon fill="#000000" stroke="#000000" points="651.9395,-796.4019 641.5059,-793.0272 646.9698,-796.951 642,-797.5 642,-797.5 642,-797.5 646.9698,-796.951 642.4941,-801.9728 651.9395,-796.4019 651.9395,-796.4019"/>
<text text-anchor="start" x="74.1765" y="-807.5" font-family="Arial" font-size="10.00" fill="#000000">FOREIGN KEY (TrackId) REFERENCES tracks (TrackId) ON UPDATE NO ACTION ON DELETE NO ACTION MATCH NONE</text>
</g>
<!-- playlist_track -->
<g id="node3" class="node">
<title>playlist_track</title>
<polygon fill="#efefef" stroke="transparent" points="746,-827.5 746,-862.5 906,-862.5 906,-827.5 746,-827.5"/>
<polygon fill="none" stroke="#000000" points="746,-827.5 746,-862.5 906,-862.5 906,-827.5 746,-827.5"/>
<text text-anchor="start" x="752.9896" y="-840.3" font-family="Arial Bold" font-size="18.00" fill="#000000">playlist_track</text>
<text text-anchor="start" x="856.9936" y="-840.3" font-family="Arial" font-size="14.00" fill="#000000"> </text>
<text text-anchor="start" x="860.8842" y="-840.3" font-family="Arial" font-size="14.00" fill="#666666">[table]</text>
<polygon fill="none" stroke="#000000" points="746,-797.5 746,-827.5 906,-827.5 906,-797.5 746,-797.5"/>
<text text-anchor="start" x="753" y="-808.9" font-family="Arial" font-size="14.00" fill="#000000">PlaylistId </text>
<text text-anchor="start" x="812.8934" y="-808.9" font-family="Arial" font-size="14.00" fill="#666666">[INTEGER]</text>
<polygon fill="none" stroke="#000000" points="746,-767.5 746,-797.5 906,-797.5 906,-767.5 746,-767.5"/>
<text text-anchor="start" x="753" y="-778.9" font-family="Arial" font-size="14.00" fill="#000000">TrackId </text>
<text text-anchor="start" x="803.5596" y="-778.9" font-family="Arial" font-size="14.00" fill="#666666">[INTEGER]</text>
</g>
<!-- playlist_track&#45;&gt;tracks -->
<g id="edge2" class="edge">
<title>playlist_track:TrackId&#45;&gt;tracks:TrackId</title>
<path fill="none" stroke="#000000" d="M736.2489,-779.5704C727.0186,-771.0118 741.0337,-745.3668 746,-725 755.6068,-685.6026 778.3932,-683.3974 788,-644 798.1605,-602.332 830.8889,-547.5 788,-547.5"/>
<polygon fill="#000000" stroke="#000000" points="736.4229,-779.6226 744.7052,-786.8097 741.2114,-781.0613 746,-782.5 746,-782.5 746,-782.5 741.2114,-781.0613 747.2948,-778.1903 736.4229,-779.6226 736.4229,-779.6226"/>
<text text-anchor="start" x="753.1765" y="-792.5" font-family="Arial" font-size="10.00" fill="#000000">FOREIGN KEY (TrackId) REFERENCES tracks (TrackId) ON UPDATE NO ACTION ON DELETE NO ACTION MATCH NONE</text>
</g>
</g>
</svg>
