<?xml version="1.0" encoding="UTF-8" standalone="no"?>
<!DOCTYPE svg PUBLIC "-//W3C//DTD SVG 1.1//EN"
 "http://www.w3.org/Graphics/SVG/1.1/DTD/svg11.dtd">
<!-- Generated by graphviz version 2.40.1 (20161225.0304)
 -->
<!-- Title: albums Pages: 1 -->
<svg width="1267pt" height="869pt"
 viewBox="0.00 0.00 1267.00 869.00" xmlns="http://www.w3.org/2000/svg" xmlns:xlink="http://www.w3.org/1999/xlink">
<g id="graph0" class="graph" transform="scale(1 1) rotate(0) translate(4 865)">
<title>albums</title>
<polygon fill="#ffffff" stroke="transparent" points="-4,4 -4,-865 1263,-865 1263,4 -4,4"/>
<!-- albums -->
<g id="node1" class="node">
<title>albums</title>
<polygon fill="#efefef" stroke="transparent" points="606,-352.5 606,-387.5 769,-387.5 769,-352.5 606,-352.5"/>
<polygon fill="none" stroke="#000000" points="606,-352.5 606,-387.5 769,-387.5 769,-352.5 606,-352.5"/>
<text text-anchor="start" x="637.4891" y="-365.3" font-family="Arial Bold" font-size="18.00" fill="#000000">albums</text>
<text text-anchor="start" x="695.4941" y="-365.3" font-family="Arial" font-size="14.00" fill="#000000"> </text>
<text text-anchor="start" x="699.3847" y="-365.3" font-family="Arial" font-size="14.00" fill="#666666">[table]</text>
<polygon fill="none" stroke="#000000" points="606,-322.5 606,-352.5 769,-352.5 769,-322.5 606,-322.5"/>
<text text-anchor="start" x="613" y="-333.9" font-family="Arial" font-size="14.00" fill="#000000">AlbumId </text>
<text text-anchor="start" x="668.2328" y="-333.9" font-family="Arial" font-size="14.00" fill="#666666">[INTEGER]</text>
<polygon fill="none" stroke="#000000" points="606,-292.5 606,-322.5 769,-322.5 769,-292.5 606,-292.5"/>
<text text-anchor="start" x="612.8387" y="-303.9" font-family="Arial" font-size="14.00" fill="#000000">Title </text>
<text text-anchor="start" x="643.1683" y="-303.9" font-family="Arial" font-size="14.00" fill="#666666">[NVARCHAR(160)]</text>
<polygon fill="none" stroke="#000000" points="606,-262.5 606,-292.5 769,-292.5 769,-262.5 606,-262.5"/>
<text text-anchor="start" x="613" y="-273.9" font-family="Arial" font-size="14.00" fill="#000000">ArtistId </text>
<text text-anchor="start" x="660.4488" y="-273.9" font-family="Arial" font-size="14.00" fill="#666666">[INTEGER]</text>
<polygon fill="none" stroke="#000000" stroke-width="3" points="604,-261.5 604,-389.5 770,-389.5 770,-261.5 604,-261.5"/>
</g>
<!-- artists -->
<g id="node3" class="node">
<title>artists</title>
<polygon fill="#efefef" stroke="transparent" points="601,-102.5 601,-137.5 775,-137.5 775,-102.5 601,-102.5"/>
<polygon fill="none" stroke="#000000" points="601,-102.5 601,-137.5 775,-137.5 775,-102.5 601,-102.5"/>
<text text-anchor="start" x="642.9931" y="-115.3" font-family="Arial Bold" font-size="18.00" fill="#000000">artists</text>
<text text-anchor="start" x="690.9901" y="-115.3" font-family="Arial" font-size="14.00" fill="#000000"> </text>
<text text-anchor="start" x="694.8807" y="-115.3" font-family="Arial" font-size="14.00" fill="#666666">[table]</text>
<polygon fill="none" stroke="#000000" points="601,-72.5 601,-102.5 775,-102.5 775,-72.5 601,-72.5"/>
<text text-anchor="start" x="608" y="-83.9" font-family="Arial" font-size="14.00" fill="#000000">ArtistId </text>
<text text-anchor="start" x="655.4488" y="-83.9" font-family="Arial" font-size="14.00" fill="#666666">[INTEGER]</text>
<polygon fill="none" stroke="#000000" points="601,-42.5 601,-72.5 775,-72.5 775,-42.5 601,-42.5"/>
<text text-anchor="start" x="607.892" y="-53.9" font-family="Arial" font-size="14.00" fill="#000000">Name </text>
<text text-anchor="start" x="649.115" y="-53.9" font-family="Arial" font-size="14.00" fill="#666666">[NVARCHAR(120)]</text>
</g>
<!-- albums&#45;&gt;artists -->
<g id="edge2" class="edge">
<title>albums:ArtistId&#45;&gt;artists:ArtistId</title>
<path fill="none" stroke="#000000" d="M687.0607,-252.3585C678.9506,-212.0035 620.5899,-226.1942 601,-181 584.4732,-142.8722 559.4444,-87.5 601,-87.5"/>
<polygon fill="#000000" stroke="#000000" points="687.0776,-252.5426 683.5192,-262.9151 687.5388,-257.5213 688,-262.5 688,-262.5 688,-262.5 687.5388,-257.5213 692.4808,-262.0849 687.0776,-252.5426 687.0776,-252.5426"/>
<text text-anchor="start" x="695.3995" y="-272.5" font-family="Arial" font-size="10.00" fill="#000000">FOREIGN KEY (ArtistId) REFERENCES artists (ArtistId) ON UPDATE NO ACTION ON DELETE NO ACTION MATCH NONE</text>
</g>
<!-- tracks -->
<g id="node2" class="node">
<title>tracks</title>
<polygon fill="#efefef" stroke="transparent" points="587,-782.5 587,-817.5 788,-817.5 788,-782.5 587,-782.5"/>
<polygon fill="none" stroke="#000000" points="587,-782.5 587,-817.5 788,-817.5 788,-782.5 587,-782.5"/>
<text text-anchor="start" x="642.4913" y="-795.3" font-family="Arial Bold" font-size="18.00" fill="#000000">tracks</text>
<text text-anchor="start" x="690.4919" y="-795.3" font-family="Arial" font-size="14.00" fill="#000000"> </text>
<text text-anchor="start" x="694.3825" y="-795.3" font-family="Arial" font-size="14.00" fill="#666666">[table]</text>
<polygon fill="none" stroke="#000000" points="587,-752.5 587,-782.5 788,-782.5 788,-752.5 587,-752.5"/>
<text text-anchor="start" x="594" y="-763.9" font-family="Arial" font-size="14.00" fill="#000000">TrackId </text>
<text text-anchor="start" x="644.5596" y="-763.9" font-family="Arial" font-size="14.00" fill="#666666">[INTEGER]</text>
<polygon fill="none" stroke="#000000" points="587,-722.5 587,-752.5 788,-752.5 788,-722.5 587,-722.5"/>
<text text-anchor="start" x="594" y="-733.9" font-family="Arial" font-size="14.00" fill="#000000">Name </text>
<text text-anchor="start" x="635.223" y="-733.9" font-family="Arial" font-size="14.00" fill="#666666">[NVARCHAR(200)]</text>
<polygon fill="none" stroke="#000000" points="587,-692.5 587,-722.5 788,-722.5 788,-692.5 587,-692.5"/>
<text text-anchor="start" x="594" y="-703.9" font-family="Arial" font-size="14.00" fill="#000000">AlbumId </text>
<text text-anchor="start" x="649.2328" y="-703.9" font-family="Arial" font-size="14.00" fill="#666666">[INTEGER]</text>
<polygon fill="none" stroke="#000000" points="587,-662.5 587,-692.5 788,-692.5 788,-662.5 587,-662.5"/>
<text text-anchor="start" x="594" y="-673.9" font-family="Arial" font-size="14.00" fill="#000000">MediaTypeId </text>
<text text-anchor="start" x="678.7966" y="-673.9" font-family="Arial" font-size="14.00" fill="#666666">[INTEGER]</text>
<polygon fill="none" stroke="#000000" points="587,-632.5 587,-662.5 788,-662.5 788,-632.5 587,-632.5"/>
<text text-anchor="start" x="594" y="-643.9" font-family="Arial" font-size="14.00" fill="#000000">GenreId </text>
<text text-anchor="start" x="648.4628" y="-643.9" font-family="Arial" font-size="14.00" fill="#666666">[INTEGER]</text>
<polygon fill="none" stroke="#000000" points="587,-602.5 587,-632.5 788,-632.5 788,-602.5 587,-602.5"/>
<text text-anchor="start" x="593.7791" y="-613.9" font-family="Arial" font-size="14.00" fill="#000000">Composer </text>
<text text-anchor="start" x="662.2279" y="-613.9" font-family="Arial" font-size="14.00" fill="#666666">[NVARCHAR(220)]</text>
<polygon fill="none" stroke="#000000" points="587,-572.5 587,-602.5 788,-602.5 788,-572.5 587,-572.5"/>
<text text-anchor="start" x="594" y="-583.9" font-family="Arial" font-size="14.00" fill="#000000">Milliseconds </text>
<text text-anchor="start" x="674.108" y="-583.9" font-family="Arial" font-size="14.00" fill="#666666">[INTEGER]</text>
<polygon fill="none" stroke="#000000" points="587,-542.5 587,-572.5 788,-572.5 788,-542.5 587,-542.5"/>
<text text-anchor="start" x="594" y="-553.9" font-family="Arial" font-size="14.00" fill="#000000">Bytes </text>
<text text-anchor="start" x="632.9004" y="-553.9" font-family="Arial" font-size="14.00" fill="#666666">[INTEGER]</text>
<polygon fill="none" stroke="#000000" points="587,-512.5 587,-542.5 788,-542.5 788,-512.5 587,-512.5"/>
<text text-anchor="start" x="594" y="-523.9" font-family="Arial" font-size="14.00" fill="#000000">UnitPrice </text>
<text text-anchor="start" x="654.6634" y="-523.9" font-family="Arial" font-size="14.00" fill="#666666">[NUMERIC(10,2)]</text>
</g>
<!-- tracks&#45;&gt;albums -->
<g id="edge1" class="edge">
<title>tracks:AlbumId&#45;&gt;albums:AlbumId</title>
<path fill="none" stroke="#000000" d="M576.9453,-705.5093C506.4192,-676.3863 527.2071,-337.5 606,-337.5"/>
<polygon fill="#000000" stroke="#000000" points="577.1904,-705.5577 586.126,-711.9143 582.0952,-706.5289 587,-707.5 587,-707.5 587,-707.5 582.0952,-706.5289 587.874,-703.0857 577.1904,-705.5577 577.1904,-705.5577"/>
<text text-anchor="start" x="7.0595" y="-717.5" font-family="Arial" font-size="10.00" fill="#000000">FOREIGN KEY (AlbumId) REFERENCES albums (AlbumId) ON UPDATE NO ACTION ON DELETE NO ACTION MATCH NONE</text>
</g>
</g>
</svg>
