<?xml version="1.0" encoding="UTF-8" standalone="no"?>
<!DOCTYPE svg PUBLIC "-//W3C//DTD SVG 1.1//EN"
 "http://www.w3.org/Graphics/SVG/1.1/DTD/svg11.dtd">
<!-- Generated by graphviz version 2.40.1 (20161225.0304)
 -->
<!-- Title: employees Pages: 1 -->
<svg width="801pt" height="1132pt"
 viewBox="0.00 0.00 800.50 1132.00" xmlns="http://www.w3.org/2000/svg" xmlns:xlink="http://www.w3.org/1999/xlink">
<g id="graph0" class="graph" transform="scale(1 1) rotate(0) translate(4 1128)">
<title>employees</title>
<polygon fill="#ffffff" stroke="transparent" points="-4,4 -4,-1128 796.5,-1128 796.5,4 -4,4"/>
<!-- employees -->
<g id="node1" class="node">
<title>employees</title>
<polygon fill="#efefef" stroke="transparent" points="46.5,-495.5 46.5,-530.5 247.5,-530.5 247.5,-495.5 46.5,-495.5"/>
<polygon fill="none" stroke="#000000" points="46.5,-495.5 46.5,-530.5 247.5,-530.5 247.5,-495.5 46.5,-495.5"/>
<text text-anchor="start" x="82.4829" y="-508.3" font-family="Arial Bold" font-size="18.00" fill="#000000">employees</text>
<text text-anchor="start" x="169.5003" y="-508.3" font-family="Arial" font-size="14.00" fill="#000000"> </text>
<text text-anchor="start" x="173.3909" y="-508.3" font-family="Arial" font-size="14.00" fill="#666666">[table]</text>
<polygon fill="none" stroke="#000000" points="46.5,-465.5 46.5,-495.5 247.5,-495.5 247.5,-465.5 46.5,-465.5"/>
<text text-anchor="start" x="53.5" y="-476.9" font-family="Arial" font-size="14.00" fill="#000000">EmployeeId </text>
<text text-anchor="start" x="131.298" y="-476.9" font-family="Arial" font-size="14.00" fill="#666666">[INTEGER]</text>
<polygon fill="none" stroke="#000000" points="46.5,-435.5 46.5,-465.5 247.5,-465.5 247.5,-435.5 46.5,-435.5"/>
<text text-anchor="start" x="53.5" y="-446.9" font-family="Arial" font-size="14.00" fill="#000000">LastName </text>
<text text-anchor="start" x="121.1788" y="-446.9" font-family="Arial" font-size="14.00" fill="#666666">[NVARCHAR(20)]</text>
<polygon fill="none" stroke="#000000" points="46.5,-405.5 46.5,-435.5 247.5,-435.5 247.5,-405.5 46.5,-405.5"/>
<text text-anchor="start" x="53.5" y="-416.9" font-family="Arial" font-size="14.00" fill="#000000">FirstName </text>
<text text-anchor="start" x="121.9334" y="-416.9" font-family="Arial" font-size="14.00" fill="#666666">[NVARCHAR(20)]</text>
<polygon fill="none" stroke="#000000" points="46.5,-375.5 46.5,-405.5 247.5,-405.5 247.5,-375.5 46.5,-375.5"/>
<text text-anchor="start" x="53.5" y="-386.9" font-family="Arial" font-size="14.00" fill="#000000">Title </text>
<text text-anchor="start" x="83.8296" y="-386.9" font-family="Arial" font-size="14.00" fill="#666666">[NVARCHAR(30)]</text>
<polygon fill="none" stroke="#000000" points="46.5,-345.5 46.5,-375.5 247.5,-375.5 247.5,-345.5 46.5,-345.5"/>
<text text-anchor="start" x="53.5" y="-356.9" font-family="Arial" font-size="14.00" fill="#000000">ReportsTo </text>
<text text-anchor="start" x="122.7314" y="-356.9" font-family="Arial" font-size="14.00" fill="#666666">[INTEGER]</text>
<polygon fill="none" stroke="#000000" points="46.5,-315.5 46.5,-345.5 247.5,-345.5 247.5,-315.5 46.5,-315.5"/>
<text text-anchor="start" x="53.5" y="-326.9" font-family="Arial" font-size="14.00" fill="#000000">BirthDate </text>
<text text-anchor="start" x="115.73" y="-326.9" font-family="Arial" font-size="14.00" fill="#666666">[DATETIME]</text>
<polygon fill="none" stroke="#000000" points="46.5,-285.5 46.5,-315.5 247.5,-315.5 247.5,-285.5 46.5,-285.5"/>
<text text-anchor="start" x="53.5" y="-296.9" font-family="Arial" font-size="14.00" fill="#000000">HireDate </text>
<text text-anchor="start" x="112.6094" y="-296.9" font-family="Arial" font-size="14.00" fill="#666666">[DATETIME]</text>
<polygon fill="none" stroke="#000000" points="46.5,-255.5 46.5,-285.5 247.5,-285.5 247.5,-255.5 46.5,-255.5"/>
<text text-anchor="start" x="53.5" y="-266.9" font-family="Arial" font-size="14.00" fill="#000000">Address </text>
<text text-anchor="start" x="108.7356" y="-266.9" font-family="Arial" font-size="14.00" fill="#666666">[NVARCHAR(70)]</text>
<polygon fill="none" stroke="#000000" points="46.5,-225.5 46.5,-255.5 247.5,-255.5 247.5,-225.5 46.5,-225.5"/>
<text text-anchor="start" x="53.5" y="-236.9" font-family="Arial" font-size="14.00" fill="#000000">City </text>
<text text-anchor="start" x="81.4944" y="-236.9" font-family="Arial" font-size="14.00" fill="#666666">[NVARCHAR(40)]</text>
<polygon fill="none" stroke="#000000" points="46.5,-195.5 46.5,-225.5 247.5,-225.5 247.5,-195.5 46.5,-195.5"/>
<text text-anchor="start" x="53.5" y="-206.9" font-family="Arial" font-size="14.00" fill="#000000">State </text>
<text text-anchor="start" x="90.0736" y="-206.9" font-family="Arial" font-size="14.00" fill="#666666">[NVARCHAR(40)]</text>
<polygon fill="none" stroke="#000000" points="46.5,-165.5 46.5,-195.5 247.5,-195.5 247.5,-165.5 46.5,-165.5"/>
<text text-anchor="start" x="53.5" y="-176.9" font-family="Arial" font-size="14.00" fill="#000000">Country </text>
<text text-anchor="start" x="106.3962" y="-176.9" font-family="Arial" font-size="14.00" fill="#666666">[NVARCHAR(40)]</text>
<polygon fill="none" stroke="#000000" points="46.5,-135.5 46.5,-165.5 247.5,-165.5 247.5,-135.5 46.5,-135.5"/>
<text text-anchor="start" x="53.2728" y="-146.9" font-family="Arial" font-size="14.00" fill="#000000">PostalCode </text>
<text text-anchor="start" x="129.5168" y="-146.9" font-family="Arial" font-size="14.00" fill="#666666">[NVARCHAR(10)]</text>
<polygon fill="none" stroke="#000000" points="46.5,-105.5 46.5,-135.5 247.5,-135.5 247.5,-105.5 46.5,-105.5"/>
<text text-anchor="start" x="53.5" y="-116.9" font-family="Arial" font-size="14.00" fill="#000000">Phone </text>
<text text-anchor="start" x="97.8576" y="-116.9" font-family="Arial" font-size="14.00" fill="#666666">[NVARCHAR(24)]</text>
<polygon fill="none" stroke="#000000" points="46.5,-75.5 46.5,-105.5 247.5,-105.5 247.5,-75.5 46.5,-75.5"/>
<text text-anchor="start" x="53.5" y="-86.9" font-family="Arial" font-size="14.00" fill="#000000">Fax </text>
<text text-anchor="start" x="80.7258" y="-86.9" font-family="Arial" font-size="14.00" fill="#666666">[NVARCHAR(24)]</text>
<polygon fill="none" stroke="#000000" points="46.5,-45.5 46.5,-75.5 247.5,-75.5 247.5,-45.5 46.5,-45.5"/>
<text text-anchor="start" x="53.5" y="-56.9" font-family="Arial" font-size="14.00" fill="#000000">Email </text>
<text text-anchor="start" x="92.3836" y="-56.9" font-family="Arial" font-size="14.00" fill="#666666">[NVARCHAR(60)]</text>
<polygon fill="none" stroke="#000000" stroke-width="3" points="44.5,-44.5 44.5,-532.5 248.5,-532.5 248.5,-44.5 44.5,-44.5"/>
</g>
<!-- employees&#45;&gt;employees -->
<g id="edge2" class="edge">
<title>employees:ReportsTo&#45;&gt;employees:EmployeeId</title>
<path fill="none" stroke="#000000" d="M148.5994,-385.7237C156.4837,-579.4443 156.1173,-867 147.5,-867 138.7373,-867 138.5063,-683.4116 146.8069,-495.7516"/>
<polygon fill="#000000" stroke="#000000" points="148.5984,-385.6975 152.6767,-375.5182 148.3895,-380.7018 148.1806,-375.7062 148.1806,-375.7062 148.1806,-375.7062 148.3895,-380.7018 143.6846,-375.8942 148.5984,-385.6975 148.5984,-385.6975"/>
<text text-anchor="start" x="155.1226" y="-385.7062" font-family="Arial" font-size="10.00" fill="#000000">FOREIGN KEY (ReportsTo) REFERENCES employees (EmployeeId) ON UPDATE NO ACTION ON DELETE NO ACTION MATCH NONE</text>
</g>
<!-- customers -->
<g id="node2" class="node">
<title>customers</title>
<polygon fill="#efefef" stroke="transparent" points="46.5,-1045.5 46.5,-1080.5 247.5,-1080.5 247.5,-1045.5 46.5,-1045.5"/>
<polygon fill="none" stroke="#000000" points="46.5,-1045.5 46.5,-1080.5 247.5,-1080.5 247.5,-1045.5 46.5,-1045.5"/>
<text text-anchor="start" x="84.489" y="-1058.3" font-family="Arial Bold" font-size="18.00" fill="#000000">customers</text>
<text text-anchor="start" x="167.4942" y="-1058.3" font-family="Arial" font-size="14.00" fill="#000000"> </text>
<text text-anchor="start" x="171.3848" y="-1058.3" font-family="Arial" font-size="14.00" fill="#666666">[table]</text>
<polygon fill="none" stroke="#000000" points="46.5,-1015.5 46.5,-1045.5 247.5,-1045.5 247.5,-1015.5 46.5,-1015.5"/>
<text text-anchor="start" x="53.5" y="-1026.9" font-family="Arial" font-size="14.00" fill="#000000">CustomerId </text>
<text text-anchor="start" x="129.73" y="-1026.9" font-family="Arial" font-size="14.00" fill="#666666">[INTEGER]</text>
<polygon fill="none" stroke="#000000" points="46.5,-985.5 46.5,-1015.5 247.5,-1015.5 247.5,-985.5 46.5,-985.5"/>
<text text-anchor="start" x="53.5" y="-996.9" font-family="Arial" font-size="14.00" fill="#000000">FirstName </text>
<text text-anchor="start" x="121.9334" y="-996.9" font-family="Arial" font-size="14.00" fill="#666666">[NVARCHAR(40)]</text>
<polygon fill="none" stroke="#000000" points="46.5,-955.5 46.5,-985.5 247.5,-985.5 247.5,-955.5 46.5,-955.5"/>
<text text-anchor="start" x="53.5" y="-966.9" font-family="Arial" font-size="14.00" fill="#000000">LastName </text>
<text text-anchor="start" x="121.1788" y="-966.9" font-family="Arial" font-size="14.00" fill="#666666">[NVARCHAR(20)]</text>
<polygon fill="none" stroke="#000000" points="46.5,-925.5 46.5,-955.5 247.5,-955.5 247.5,-925.5 46.5,-925.5"/>
<text text-anchor="start" x="53.5" y="-936.9" font-family="Arial" font-size="14.00" fill="#000000">Company </text>
<text text-anchor="start" x="117.2882" y="-936.9" font-family="Arial" font-size="14.00" fill="#666666">[NVARCHAR(80)]</text>
<polygon fill="none" stroke="#000000" points="46.5,-895.5 46.5,-925.5 247.5,-925.5 247.5,-895.5 46.5,-895.5"/>
<text text-anchor="start" x="53.5" y="-906.9" font-family="Arial" font-size="14.00" fill="#000000">Address </text>
<text text-anchor="start" x="108.7356" y="-906.9" font-family="Arial" font-size="14.00" fill="#666666">[NVARCHAR(70)]</text>
<polygon fill="none" stroke="#000000" points="46.5,-865.5 46.5,-895.5 247.5,-895.5 247.5,-865.5 46.5,-865.5"/>
<text text-anchor="start" x="53.5" y="-876.9" font-family="Arial" font-size="14.00" fill="#000000">City </text>
<text text-anchor="start" x="81.4944" y="-876.9" font-family="Arial" font-size="14.00" fill="#666666">[NVARCHAR(40)]</text>
<polygon fill="none" stroke="#000000" points="46.5,-835.5 46.5,-865.5 247.5,-865.5 247.5,-835.5 46.5,-835.5"/>
<text text-anchor="start" x="53.5" y="-846.9" font-family="Arial" font-size="14.00" fill="#000000">State </text>
<text text-anchor="start" x="90.0736" y="-846.9" font-family="Arial" font-size="14.00" fill="#666666">[NVARCHAR(40)]</text>
<polygon fill="none" stroke="#000000" points="46.5,-805.5 46.5,-835.5 247.5,-835.5 247.5,-805.5 46.5,-805.5"/>
<text text-anchor="start" x="53.5" y="-816.9" font-family="Arial" font-size="14.00" fill="#000000">Country </text>
<text text-anchor="start" x="106.3962" y="-816.9" font-family="Arial" font-size="14.00" fill="#666666">[NVARCHAR(40)]</text>
<polygon fill="none" stroke="#000000" points="46.5,-775.5 46.5,-805.5 247.5,-805.5 247.5,-775.5 46.5,-775.5"/>
<text text-anchor="start" x="53.2728" y="-786.9" font-family="Arial" font-size="14.00" fill="#000000">PostalCode </text>
<text text-anchor="start" x="129.5168" y="-786.9" font-family="Arial" font-size="14.00" fill="#666666">[NVARCHAR(10)]</text>
<polygon fill="none" stroke="#000000" points="46.5,-745.5 46.5,-775.5 247.5,-775.5 247.5,-745.5 46.5,-745.5"/>
<text text-anchor="start" x="53.5" y="-756.9" font-family="Arial" font-size="14.00" fill="#000000">Phone </text>
<text text-anchor="start" x="97.8576" y="-756.9" font-family="Arial" font-size="14.00" fill="#666666">[NVARCHAR(24)]</text>
<polygon fill="none" stroke="#000000" points="46.5,-715.5 46.5,-745.5 247.5,-745.5 247.5,-715.5 46.5,-715.5"/>
<text text-anchor="start" x="53.5" y="-726.9" font-family="Arial" font-size="14.00" fill="#000000">Fax </text>
<text text-anchor="start" x="80.7258" y="-726.9" font-family="Arial" font-size="14.00" fill="#666666">[NVARCHAR(24)]</text>
<polygon fill="none" stroke="#000000" points="46.5,-685.5 46.5,-715.5 247.5,-715.5 247.5,-685.5 46.5,-685.5"/>
<text text-anchor="start" x="53.5" y="-696.9" font-family="Arial" font-size="14.00" fill="#000000">Email </text>
<text text-anchor="start" x="92.3836" y="-696.9" font-family="Arial" font-size="14.00" fill="#666666">[NVARCHAR(60)]</text>
<polygon fill="none" stroke="#000000" points="46.5,-655.5 46.5,-685.5 247.5,-685.5 247.5,-655.5 46.5,-655.5"/>
<text text-anchor="start" x="53.5" y="-666.9" font-family="Arial" font-size="14.00" fill="#000000">SupportRepId </text>
<text text-anchor="start" x="143.7538" y="-666.9" font-family="Arial" font-size="14.00" fill="#666666">[INTEGER]</text>
</g>
<!-- customers&#45;&gt;employees -->
<g id="edge1" class="edge">
<title>customers:SupportRepId&#45;&gt;employees:EmployeeId</title>
<path fill="none" stroke="#000000" d="M146.5867,-645.5375C137.9134,-602.1053 69.8766,-624.776 46.5,-577 27.6501,-538.4755 3.6111,-480.5 46.5,-480.5"/>
<polygon fill="#000000" stroke="#000000" points="146.587,-645.5418 143.0188,-655.9109 147.0435,-650.5209 147.5,-655.5 147.5,-655.5 147.5,-655.5 147.0435,-650.5209 151.9812,-655.0891 146.587,-645.5418 146.587,-645.5418"/>
<text text-anchor="start" x="154.934" y="-665.5" font-family="Arial" font-size="10.00" fill="#000000">FOREIGN KEY (SupportRepId) REFERENCES employees (EmployeeId) ON UPDATE NO ACTION ON DELETE NO ACTION MATCH NONE</text>
</g>
</g>
</svg>
