<?xml version="1.0" encoding="UTF-8" standalone="no"?>
<!DOCTYPE svg PUBLIC "-//W3C//DTD SVG 1.1//EN"
 "http://www.w3.org/Graphics/SVG/1.1/DTD/svg11.dtd">
<!-- Generated by graphviz version 2.40.1 (20161225.0304)
 -->
<!-- Title: invoices Pages: 1 -->
<svg width="1448pt" height="1259pt"
 viewBox="0.00 0.00 1448.00 1259.00" xmlns="http://www.w3.org/2000/svg" xmlns:xlink="http://www.w3.org/1999/xlink">
<g id="graph0" class="graph" transform="scale(1 1) rotate(0) translate(4 1255)">
<title>invoices</title>
<polygon fill="#ffffff" stroke="transparent" points="-4,4 -4,-1255 1444,-1255 1444,4 -4,4"/>
<!-- invoices -->
<g id="node1" class="node">
<title>invoices</title>
<polygon fill="#efefef" stroke="transparent" points="631,-862.5 631,-897.5 869,-897.5 869,-862.5 631,-862.5"/>
<polygon fill="none" stroke="#000000" points="631,-862.5 631,-897.5 869,-897.5 869,-862.5 631,-862.5"/>
<text text-anchor="start" x="696.4881" y="-875.3" font-family="Arial Bold" font-size="18.00" fill="#000000">invoices</text>
<text text-anchor="start" x="761.4951" y="-875.3" font-family="Arial" font-size="14.00" fill="#000000"> </text>
<text text-anchor="start" x="765.3857" y="-875.3" font-family="Arial" font-size="14.00" fill="#666666">[table]</text>
<polygon fill="none" stroke="#000000" points="631,-832.5 631,-862.5 869,-862.5 869,-832.5 631,-832.5"/>
<text text-anchor="start" x="638" y="-843.9" font-family="Arial" font-size="14.00" fill="#000000">InvoiceId </text>
<text text-anchor="start" x="697.9088" y="-843.9" font-family="Arial" font-size="14.00" fill="#666666">[INTEGER]</text>
<polygon fill="none" stroke="#000000" points="631,-802.5 631,-832.5 869,-832.5 869,-802.5 631,-802.5"/>
<text text-anchor="start" x="638" y="-813.9" font-family="Arial" font-size="14.00" fill="#000000">CustomerId </text>
<text text-anchor="start" x="714.23" y="-813.9" font-family="Arial" font-size="14.00" fill="#666666">[INTEGER]</text>
<polygon fill="none" stroke="#000000" points="631,-772.5 631,-802.5 869,-802.5 869,-772.5 631,-772.5"/>
<text text-anchor="start" x="638" y="-783.9" font-family="Arial" font-size="14.00" fill="#000000">InvoiceDate </text>
<text text-anchor="start" x="715.798" y="-783.9" font-family="Arial" font-size="14.00" fill="#666666">[DATETIME]</text>
<polygon fill="none" stroke="#000000" points="631,-742.5 631,-772.5 869,-772.5 869,-742.5 631,-742.5"/>
<text text-anchor="start" x="638" y="-753.9" font-family="Arial" font-size="14.00" fill="#000000">BillingAddress </text>
<text text-anchor="start" x="730.5638" y="-753.9" font-family="Arial" font-size="14.00" fill="#666666">[NVARCHAR(70)]</text>
<polygon fill="none" stroke="#000000" points="631,-712.5 631,-742.5 869,-742.5 869,-712.5 631,-712.5"/>
<text text-anchor="start" x="638" y="-723.9" font-family="Arial" font-size="14.00" fill="#000000">BillingCity </text>
<text text-anchor="start" x="703.3226" y="-723.9" font-family="Arial" font-size="14.00" fill="#666666">[NVARCHAR(40)]</text>
<polygon fill="none" stroke="#000000" points="631,-682.5 631,-712.5 869,-712.5 869,-682.5 631,-682.5"/>
<text text-anchor="start" x="638" y="-693.9" font-family="Arial" font-size="14.00" fill="#000000">BillingState </text>
<text text-anchor="start" x="711.9018" y="-693.9" font-family="Arial" font-size="14.00" fill="#666666">[NVARCHAR(40)]</text>
<polygon fill="none" stroke="#000000" points="631,-652.5 631,-682.5 869,-682.5 869,-652.5 631,-652.5"/>
<text text-anchor="start" x="638" y="-663.9" font-family="Arial" font-size="14.00" fill="#000000">BillingCountry </text>
<text text-anchor="start" x="728.2244" y="-663.9" font-family="Arial" font-size="14.00" fill="#666666">[NVARCHAR(40)]</text>
<polygon fill="none" stroke="#000000" points="631,-622.5 631,-652.5 869,-652.5 869,-622.5 631,-622.5"/>
<text text-anchor="start" x="637.6087" y="-633.9" font-family="Arial" font-size="14.00" fill="#000000">BillingPostalCode </text>
<text text-anchor="start" x="751.1809" y="-633.9" font-family="Arial" font-size="14.00" fill="#666666">[NVARCHAR(10)]</text>
<polygon fill="none" stroke="#000000" points="631,-592.5 631,-622.5 869,-622.5 869,-592.5 631,-592.5"/>
<text text-anchor="start" x="638" y="-603.9" font-family="Arial" font-size="14.00" fill="#000000">Total </text>
<text text-anchor="start" x="673.0056" y="-603.9" font-family="Arial" font-size="14.00" fill="#666666">[NUMERIC(10,2)]</text>
<polygon fill="none" stroke="#000000" stroke-width="3" points="629.5,-591.5 629.5,-899.5 870.5,-899.5 870.5,-591.5 629.5,-591.5"/>
</g>
<!-- customers -->
<g id="node3" class="node">
<title>customers</title>
<polygon fill="#efefef" stroke="transparent" points="649,-432.5 649,-467.5 850,-467.5 850,-432.5 649,-432.5"/>
<polygon fill="none" stroke="#000000" points="649,-432.5 649,-467.5 850,-467.5 850,-432.5 649,-432.5"/>
<text text-anchor="start" x="686.989" y="-445.3" font-family="Arial Bold" font-size="18.00" fill="#000000">customers</text>
<text text-anchor="start" x="769.9942" y="-445.3" font-family="Arial" font-size="14.00" fill="#000000"> </text>
<text text-anchor="start" x="773.8848" y="-445.3" font-family="Arial" font-size="14.00" fill="#666666">[table]</text>
<polygon fill="none" stroke="#000000" points="649,-402.5 649,-432.5 850,-432.5 850,-402.5 649,-402.5"/>
<text text-anchor="start" x="656" y="-413.9" font-family="Arial" font-size="14.00" fill="#000000">CustomerId </text>
<text text-anchor="start" x="732.23" y="-413.9" font-family="Arial" font-size="14.00" fill="#666666">[INTEGER]</text>
<polygon fill="none" stroke="#000000" points="649,-372.5 649,-402.5 850,-402.5 850,-372.5 649,-372.5"/>
<text text-anchor="start" x="656" y="-383.9" font-family="Arial" font-size="14.00" fill="#000000">FirstName </text>
<text text-anchor="start" x="724.4334" y="-383.9" font-family="Arial" font-size="14.00" fill="#666666">[NVARCHAR(40)]</text>
<polygon fill="none" stroke="#000000" points="649,-342.5 649,-372.5 850,-372.5 850,-342.5 649,-342.5"/>
<text text-anchor="start" x="656" y="-353.9" font-family="Arial" font-size="14.00" fill="#000000">LastName </text>
<text text-anchor="start" x="723.6788" y="-353.9" font-family="Arial" font-size="14.00" fill="#666666">[NVARCHAR(20)]</text>
<polygon fill="none" stroke="#000000" points="649,-312.5 649,-342.5 850,-342.5 850,-312.5 649,-312.5"/>
<text text-anchor="start" x="656" y="-323.9" font-family="Arial" font-size="14.00" fill="#000000">Company </text>
<text text-anchor="start" x="719.7882" y="-323.9" font-family="Arial" font-size="14.00" fill="#666666">[NVARCHAR(80)]</text>
<polygon fill="none" stroke="#000000" points="649,-282.5 649,-312.5 850,-312.5 850,-282.5 649,-282.5"/>
<text text-anchor="start" x="656" y="-293.9" font-family="Arial" font-size="14.00" fill="#000000">Address </text>
<text text-anchor="start" x="711.2356" y="-293.9" font-family="Arial" font-size="14.00" fill="#666666">[NVARCHAR(70)]</text>
<polygon fill="none" stroke="#000000" points="649,-252.5 649,-282.5 850,-282.5 850,-252.5 649,-252.5"/>
<text text-anchor="start" x="656" y="-263.9" font-family="Arial" font-size="14.00" fill="#000000">City </text>
<text text-anchor="start" x="683.9944" y="-263.9" font-family="Arial" font-size="14.00" fill="#666666">[NVARCHAR(40)]</text>
<polygon fill="none" stroke="#000000" points="649,-222.5 649,-252.5 850,-252.5 850,-222.5 649,-222.5"/>
<text text-anchor="start" x="656" y="-233.9" font-family="Arial" font-size="14.00" fill="#000000">State </text>
<text text-anchor="start" x="692.5736" y="-233.9" font-family="Arial" font-size="14.00" fill="#666666">[NVARCHAR(40)]</text>
<polygon fill="none" stroke="#000000" points="649,-192.5 649,-222.5 850,-222.5 850,-192.5 649,-192.5"/>
<text text-anchor="start" x="656" y="-203.9" font-family="Arial" font-size="14.00" fill="#000000">Country </text>
<text text-anchor="start" x="708.8962" y="-203.9" font-family="Arial" font-size="14.00" fill="#666666">[NVARCHAR(40)]</text>
<polygon fill="none" stroke="#000000" points="649,-162.5 649,-192.5 850,-192.5 850,-162.5 649,-162.5"/>
<text text-anchor="start" x="655.7728" y="-173.9" font-family="Arial" font-size="14.00" fill="#000000">PostalCode </text>
<text text-anchor="start" x="732.0168" y="-173.9" font-family="Arial" font-size="14.00" fill="#666666">[NVARCHAR(10)]</text>
<polygon fill="none" stroke="#000000" points="649,-132.5 649,-162.5 850,-162.5 850,-132.5 649,-132.5"/>
<text text-anchor="start" x="656" y="-143.9" font-family="Arial" font-size="14.00" fill="#000000">Phone </text>
<text text-anchor="start" x="700.3576" y="-143.9" font-family="Arial" font-size="14.00" fill="#666666">[NVARCHAR(24)]</text>
<polygon fill="none" stroke="#000000" points="649,-102.5 649,-132.5 850,-132.5 850,-102.5 649,-102.5"/>
<text text-anchor="start" x="656" y="-113.9" font-family="Arial" font-size="14.00" fill="#000000">Fax </text>
<text text-anchor="start" x="683.2258" y="-113.9" font-family="Arial" font-size="14.00" fill="#666666">[NVARCHAR(24)]</text>
<polygon fill="none" stroke="#000000" points="649,-72.5 649,-102.5 850,-102.5 850,-72.5 649,-72.5"/>
<text text-anchor="start" x="656" y="-83.9" font-family="Arial" font-size="14.00" fill="#000000">Email </text>
<text text-anchor="start" x="694.8836" y="-83.9" font-family="Arial" font-size="14.00" fill="#666666">[NVARCHAR(60)]</text>
<polygon fill="none" stroke="#000000" points="649,-42.5 649,-72.5 850,-72.5 850,-42.5 649,-42.5"/>
<text text-anchor="start" x="656" y="-53.9" font-family="Arial" font-size="14.00" fill="#000000">SupportRepId </text>
<text text-anchor="start" x="746.2538" y="-53.9" font-family="Arial" font-size="14.00" fill="#666666">[INTEGER]</text>
</g>
<!-- invoices&#45;&gt;customers -->
<g id="edge2" class="edge">
<title>invoices:CustomerId&#45;&gt;customers:CustomerId</title>
<path fill="none" stroke="#000000" d="M620.8492,-817.0462C513.2932,-807.0951 555.4691,-635.9606 631,-547 694.8418,-471.8069 786.1582,-586.1931 850,-511 876.8957,-479.3221 891.5556,-417.5 850,-417.5"/>
<polygon fill="#000000" stroke="#000000" points="621.01,-817.0533 630.799,-821.9955 626.005,-817.2766 631,-817.5 631,-817.5 631,-817.5 626.005,-817.2766 631.201,-813.0045 621.01,-817.0533 621.01,-817.0533"/>
<text text-anchor="start" x="7.117" y="-827.5" font-family="Arial" font-size="10.00" fill="#000000">FOREIGN KEY (CustomerId) REFERENCES customers (CustomerId) ON UPDATE NO ACTION ON DELETE NO ACTION MATCH NONE</text>
</g>
<!-- invoice_items -->
<g id="node2" class="node">
<title>invoice_items</title>
<polygon fill="#efefef" stroke="transparent" points="658,-1172.5 658,-1207.5 842,-1207.5 842,-1172.5 658,-1172.5"/>
<polygon fill="none" stroke="#000000" points="658,-1172.5 658,-1207.5 842,-1207.5 842,-1172.5 658,-1172.5"/>
<text text-anchor="start" x="674.4876" y="-1185.3" font-family="Arial Bold" font-size="18.00" fill="#000000">invoice_items</text>
<text text-anchor="start" x="783.4956" y="-1185.3" font-family="Arial" font-size="14.00" fill="#000000"> </text>
<text text-anchor="start" x="787.3862" y="-1185.3" font-family="Arial" font-size="14.00" fill="#666666">[table]</text>
<polygon fill="none" stroke="#000000" points="658,-1142.5 658,-1172.5 842,-1172.5 842,-1142.5 658,-1142.5"/>
<text text-anchor="start" x="665" y="-1153.9" font-family="Arial" font-size="14.00" fill="#000000">InvoiceLineId </text>
<text text-anchor="start" x="751.3632" y="-1153.9" font-family="Arial" font-size="14.00" fill="#666666">[INTEGER]</text>
<polygon fill="none" stroke="#000000" points="658,-1112.5 658,-1142.5 842,-1142.5 842,-1112.5 658,-1112.5"/>
<text text-anchor="start" x="665" y="-1123.9" font-family="Arial" font-size="14.00" fill="#000000">InvoiceId </text>
<text text-anchor="start" x="724.9088" y="-1123.9" font-family="Arial" font-size="14.00" fill="#666666">[INTEGER]</text>
<polygon fill="none" stroke="#000000" points="658,-1082.5 658,-1112.5 842,-1112.5 842,-1082.5 658,-1082.5"/>
<text text-anchor="start" x="665" y="-1093.9" font-family="Arial" font-size="14.00" fill="#000000">TrackId </text>
<text text-anchor="start" x="715.5596" y="-1093.9" font-family="Arial" font-size="14.00" fill="#666666">[INTEGER]</text>
<polygon fill="none" stroke="#000000" points="658,-1052.5 658,-1082.5 842,-1082.5 842,-1052.5 658,-1052.5"/>
<text text-anchor="start" x="664.8408" y="-1063.9" font-family="Arial" font-size="14.00" fill="#000000">UnitPrice </text>
<text text-anchor="start" x="725.5042" y="-1063.9" font-family="Arial" font-size="14.00" fill="#666666">[NUMERIC(10,2)]</text>
<polygon fill="none" stroke="#000000" points="658,-1022.5 658,-1052.5 842,-1052.5 842,-1022.5 658,-1022.5"/>
<text text-anchor="start" x="665" y="-1033.9" font-family="Arial" font-size="14.00" fill="#000000">Quantity </text>
<text text-anchor="start" x="721.0168" y="-1033.9" font-family="Arial" font-size="14.00" fill="#666666">[INTEGER]</text>
</g>
<!-- invoice_items&#45;&gt;invoices -->
<g id="edge1" class="edge">
<title>invoice_items:InvoiceId&#45;&gt;invoices:InvoiceId</title>
<path fill="none" stroke="#000000" d="M851.9282,-1125.0794C907.1963,-1097.7124 928.0923,-847.5 869,-847.5"/>
<polygon fill="#000000" stroke="#000000" points="851.7154,-1125.1312 840.934,-1123.1281 846.8577,-1126.3156 842,-1127.5 842,-1127.5 842,-1127.5 846.8577,-1126.3156 843.066,-1131.8719 851.7154,-1125.1312 851.7154,-1125.1312"/>
<text text-anchor="start" x="848.7745" y="-1137.5" font-family="Arial" font-size="10.00" fill="#000000">FOREIGN KEY (InvoiceId) REFERENCES invoices (InvoiceId) ON UPDATE NO ACTION ON DELETE NO ACTION MATCH NONE</text>
</g>
</g>
</svg>
