<?xml version="1.0" encoding="UTF-8" standalone="no"?>
<!DOCTYPE svg PUBLIC "-//W3C//DTD SVG 1.1//EN"
 "http://www.w3.org/Graphics/SVG/1.1/DTD/svg11.dtd">
<!-- Generated by graphviz version 2.40.1 (20161225.0304)
 -->
<!-- Title: invoice_items Pages: 1 -->
<svg width="1365pt" height="712pt"
 viewBox="0.00 0.00 1365.00 712.00" xmlns="http://www.w3.org/2000/svg" xmlns:xlink="http://www.w3.org/1999/xlink">
<g id="graph0" class="graph" transform="scale(1 1) rotate(0) translate(4 708)">
<title>invoice_items</title>
<polygon fill="#ffffff" stroke="transparent" points="-4,4 -4,-708 1361,-708 1361,4 -4,4"/>
<!-- invoice_items -->
<g id="node1" class="node">
<title>invoice_items</title>
<polygon fill="#efefef" stroke="transparent" points="598,-622.5 598,-657.5 782,-657.5 782,-622.5 598,-622.5"/>
<polygon fill="none" stroke="#000000" points="598,-622.5 598,-657.5 782,-657.5 782,-622.5 598,-622.5"/>
<text text-anchor="start" x="614.4876" y="-635.3" font-family="Arial Bold" font-size="18.00" fill="#000000">invoice_items</text>
<text text-anchor="start" x="723.4956" y="-635.3" font-family="Arial" font-size="14.00" fill="#000000"> </text>
<text text-anchor="start" x="727.3862" y="-635.3" font-family="Arial" font-size="14.00" fill="#666666">[table]</text>
<polygon fill="none" stroke="#000000" points="598,-592.5 598,-622.5 782,-622.5 782,-592.5 598,-592.5"/>
<text text-anchor="start" x="605" y="-603.9" font-family="Arial" font-size="14.00" fill="#000000">InvoiceLineId </text>
<text text-anchor="start" x="691.3632" y="-603.9" font-family="Arial" font-size="14.00" fill="#666666">[INTEGER]</text>
<polygon fill="none" stroke="#000000" points="598,-562.5 598,-592.5 782,-592.5 782,-562.5 598,-562.5"/>
<text text-anchor="start" x="605" y="-573.9" font-family="Arial" font-size="14.00" fill="#000000">InvoiceId </text>
<text text-anchor="start" x="664.9088" y="-573.9" font-family="Arial" font-size="14.00" fill="#666666">[INTEGER]</text>
<polygon fill="none" stroke="#000000" points="598,-532.5 598,-562.5 782,-562.5 782,-532.5 598,-532.5"/>
<text text-anchor="start" x="605" y="-543.9" font-family="Arial" font-size="14.00" fill="#000000">TrackId </text>
<text text-anchor="start" x="655.5596" y="-543.9" font-family="Arial" font-size="14.00" fill="#666666">[INTEGER]</text>
<polygon fill="none" stroke="#000000" points="598,-502.5 598,-532.5 782,-532.5 782,-502.5 598,-502.5"/>
<text text-anchor="start" x="604.8408" y="-513.9" font-family="Arial" font-size="14.00" fill="#000000">UnitPrice </text>
<text text-anchor="start" x="665.5042" y="-513.9" font-family="Arial" font-size="14.00" fill="#666666">[NUMERIC(10,2)]</text>
<polygon fill="none" stroke="#000000" points="598,-472.5 598,-502.5 782,-502.5 782,-472.5 598,-472.5"/>
<text text-anchor="start" x="605" y="-483.9" font-family="Arial" font-size="14.00" fill="#000000">Quantity </text>
<text text-anchor="start" x="661.0168" y="-483.9" font-family="Arial" font-size="14.00" fill="#666666">[INTEGER]</text>
<polygon fill="none" stroke="#000000" stroke-width="3" points="596.5,-471.5 596.5,-659.5 783.5,-659.5 783.5,-471.5 596.5,-471.5"/>
</g>
<!-- invoices -->
<g id="node2" class="node">
<title>invoices</title>
<polygon fill="#efefef" stroke="transparent" points="409,-312.5 409,-347.5 647,-347.5 647,-312.5 409,-312.5"/>
<polygon fill="none" stroke="#000000" points="409,-312.5 409,-347.5 647,-347.5 647,-312.5 409,-312.5"/>
<text text-anchor="start" x="474.4881" y="-325.3" font-family="Arial Bold" font-size="18.00" fill="#000000">invoices</text>
<text text-anchor="start" x="539.4951" y="-325.3" font-family="Arial" font-size="14.00" fill="#000000"> </text>
<text text-anchor="start" x="543.3857" y="-325.3" font-family="Arial" font-size="14.00" fill="#666666">[table]</text>
<polygon fill="none" stroke="#000000" points="409,-282.5 409,-312.5 647,-312.5 647,-282.5 409,-282.5"/>
<text text-anchor="start" x="416" y="-293.9" font-family="Arial" font-size="14.00" fill="#000000">InvoiceId </text>
<text text-anchor="start" x="475.9088" y="-293.9" font-family="Arial" font-size="14.00" fill="#666666">[INTEGER]</text>
<polygon fill="none" stroke="#000000" points="409,-252.5 409,-282.5 647,-282.5 647,-252.5 409,-252.5"/>
<text text-anchor="start" x="416" y="-263.9" font-family="Arial" font-size="14.00" fill="#000000">CustomerId </text>
<text text-anchor="start" x="492.23" y="-263.9" font-family="Arial" font-size="14.00" fill="#666666">[INTEGER]</text>
<polygon fill="none" stroke="#000000" points="409,-222.5 409,-252.5 647,-252.5 647,-222.5 409,-222.5"/>
<text text-anchor="start" x="416" y="-233.9" font-family="Arial" font-size="14.00" fill="#000000">InvoiceDate </text>
<text text-anchor="start" x="493.798" y="-233.9" font-family="Arial" font-size="14.00" fill="#666666">[DATETIME]</text>
<polygon fill="none" stroke="#000000" points="409,-192.5 409,-222.5 647,-222.5 647,-192.5 409,-192.5"/>
<text text-anchor="start" x="416" y="-203.9" font-family="Arial" font-size="14.00" fill="#000000">BillingAddress </text>
<text text-anchor="start" x="508.5638" y="-203.9" font-family="Arial" font-size="14.00" fill="#666666">[NVARCHAR(70)]</text>
<polygon fill="none" stroke="#000000" points="409,-162.5 409,-192.5 647,-192.5 647,-162.5 409,-162.5"/>
<text text-anchor="start" x="416" y="-173.9" font-family="Arial" font-size="14.00" fill="#000000">BillingCity </text>
<text text-anchor="start" x="481.3226" y="-173.9" font-family="Arial" font-size="14.00" fill="#666666">[NVARCHAR(40)]</text>
<polygon fill="none" stroke="#000000" points="409,-132.5 409,-162.5 647,-162.5 647,-132.5 409,-132.5"/>
<text text-anchor="start" x="416" y="-143.9" font-family="Arial" font-size="14.00" fill="#000000">BillingState </text>
<text text-anchor="start" x="489.9018" y="-143.9" font-family="Arial" font-size="14.00" fill="#666666">[NVARCHAR(40)]</text>
<polygon fill="none" stroke="#000000" points="409,-102.5 409,-132.5 647,-132.5 647,-102.5 409,-102.5"/>
<text text-anchor="start" x="416" y="-113.9" font-family="Arial" font-size="14.00" fill="#000000">BillingCountry </text>
<text text-anchor="start" x="506.2244" y="-113.9" font-family="Arial" font-size="14.00" fill="#666666">[NVARCHAR(40)]</text>
<polygon fill="none" stroke="#000000" points="409,-72.5 409,-102.5 647,-102.5 647,-72.5 409,-72.5"/>
<text text-anchor="start" x="415.6087" y="-83.9" font-family="Arial" font-size="14.00" fill="#000000">BillingPostalCode </text>
<text text-anchor="start" x="529.1809" y="-83.9" font-family="Arial" font-size="14.00" fill="#666666">[NVARCHAR(10)]</text>
<polygon fill="none" stroke="#000000" points="409,-42.5 409,-72.5 647,-72.5 647,-42.5 409,-42.5"/>
<text text-anchor="start" x="416" y="-53.9" font-family="Arial" font-size="14.00" fill="#000000">Total </text>
<text text-anchor="start" x="451.0056" y="-53.9" font-family="Arial" font-size="14.00" fill="#666666">[NUMERIC(10,2)]</text>
</g>
<!-- invoice_items&#45;&gt;invoices -->
<g id="edge1" class="edge">
<title>invoice_items:InvoiceId&#45;&gt;invoices:InvoiceId</title>
<path fill="none" stroke="#000000" d="M587.6963,-577.4256C305.4625,-573.2561 644.8064,-395.3336 647,-391 665.7674,-353.9237 688.5556,-297.5 647,-297.5"/>
<polygon fill="#000000" stroke="#000000" points="588.0003,-577.4277 597.9674,-581.9999 593.0001,-577.4638 598,-577.5 598,-577.5 598,-577.5 593.0001,-577.4638 598.0326,-573.0001 588.0003,-577.4277 588.0003,-577.4277"/>
<text text-anchor="start" x="6.7745" y="-587.5" font-family="Arial" font-size="10.00" fill="#000000">FOREIGN KEY (InvoiceId) REFERENCES invoices (InvoiceId) ON UPDATE NO ACTION ON DELETE NO ACTION MATCH NONE</text>
</g>
<!-- tracks -->
<g id="node3" class="node">
<title>tracks</title>
<polygon fill="#efefef" stroke="transparent" points="752,-312.5 752,-347.5 953,-347.5 953,-312.5 752,-312.5"/>
<polygon fill="none" stroke="#000000" points="752,-312.5 752,-347.5 953,-347.5 953,-312.5 752,-312.5"/>
<text text-anchor="start" x="807.4913" y="-325.3" font-family="Arial Bold" font-size="18.00" fill="#000000">tracks</text>
<text text-anchor="start" x="855.4919" y="-325.3" font-family="Arial" font-size="14.00" fill="#000000"> </text>
<text text-anchor="start" x="859.3825" y="-325.3" font-family="Arial" font-size="14.00" fill="#666666">[table]</text>
<polygon fill="none" stroke="#000000" points="752,-282.5 752,-312.5 953,-312.5 953,-282.5 752,-282.5"/>
<text text-anchor="start" x="759" y="-293.9" font-family="Arial" font-size="14.00" fill="#000000">TrackId </text>
<text text-anchor="start" x="809.5596" y="-293.9" font-family="Arial" font-size="14.00" fill="#666666">[INTEGER]</text>
<polygon fill="none" stroke="#000000" points="752,-252.5 752,-282.5 953,-282.5 953,-252.5 752,-252.5"/>
<text text-anchor="start" x="759" y="-263.9" font-family="Arial" font-size="14.00" fill="#000000">Name </text>
<text text-anchor="start" x="800.223" y="-263.9" font-family="Arial" font-size="14.00" fill="#666666">[NVARCHAR(200)]</text>
<polygon fill="none" stroke="#000000" points="752,-222.5 752,-252.5 953,-252.5 953,-222.5 752,-222.5"/>
<text text-anchor="start" x="759" y="-233.9" font-family="Arial" font-size="14.00" fill="#000000">AlbumId </text>
<text text-anchor="start" x="814.2328" y="-233.9" font-family="Arial" font-size="14.00" fill="#666666">[INTEGER]</text>
<polygon fill="none" stroke="#000000" points="752,-192.5 752,-222.5 953,-222.5 953,-192.5 752,-192.5"/>
<text text-anchor="start" x="759" y="-203.9" font-family="Arial" font-size="14.00" fill="#000000">MediaTypeId </text>
<text text-anchor="start" x="843.7966" y="-203.9" font-family="Arial" font-size="14.00" fill="#666666">[INTEGER]</text>
<polygon fill="none" stroke="#000000" points="752,-162.5 752,-192.5 953,-192.5 953,-162.5 752,-162.5"/>
<text text-anchor="start" x="759" y="-173.9" font-family="Arial" font-size="14.00" fill="#000000">GenreId </text>
<text text-anchor="start" x="813.4628" y="-173.9" font-family="Arial" font-size="14.00" fill="#666666">[INTEGER]</text>
<polygon fill="none" stroke="#000000" points="752,-132.5 752,-162.5 953,-162.5 953,-132.5 752,-132.5"/>
<text text-anchor="start" x="758.7791" y="-143.9" font-family="Arial" font-size="14.00" fill="#000000">Composer </text>
<text text-anchor="start" x="827.2279" y="-143.9" font-family="Arial" font-size="14.00" fill="#666666">[NVARCHAR(220)]</text>
<polygon fill="none" stroke="#000000" points="752,-102.5 752,-132.5 953,-132.5 953,-102.5 752,-102.5"/>
<text text-anchor="start" x="759" y="-113.9" font-family="Arial" font-size="14.00" fill="#000000">Milliseconds </text>
<text text-anchor="start" x="839.108" y="-113.9" font-family="Arial" font-size="14.00" fill="#666666">[INTEGER]</text>
<polygon fill="none" stroke="#000000" points="752,-72.5 752,-102.5 953,-102.5 953,-72.5 752,-72.5"/>
<text text-anchor="start" x="759" y="-83.9" font-family="Arial" font-size="14.00" fill="#000000">Bytes </text>
<text text-anchor="start" x="797.9004" y="-83.9" font-family="Arial" font-size="14.00" fill="#666666">[INTEGER]</text>
<polygon fill="none" stroke="#000000" points="752,-42.5 752,-72.5 953,-72.5 953,-42.5 752,-42.5"/>
<text text-anchor="start" x="759" y="-53.9" font-family="Arial" font-size="14.00" fill="#000000">UnitPrice </text>
<text text-anchor="start" x="819.6634" y="-53.9" font-family="Arial" font-size="14.00" fill="#666666">[NUMERIC(10,2)]</text>
</g>
<!-- invoice_items&#45;&gt;tracks -->
<g id="edge2" class="edge">
<title>invoice_items:TrackId&#45;&gt;tracks:TrackId</title>
<path fill="none" stroke="#000000" d="M792.0155,-546.4909C830.6726,-537.7339 798.9498,-473.8161 782,-427 774.9098,-407.4167 759.0902,-410.5833 752,-391 737.8534,-351.9265 710.4444,-297.5 752,-297.5"/>
<polygon fill="#000000" stroke="#000000" points="791.9496,-546.4975 781.5489,-543.0227 786.9748,-546.9987 782,-547.5 782,-547.5 782,-547.5 786.9748,-546.9987 782.4511,-551.9773 791.9496,-546.4975 791.9496,-546.4975"/>
<text text-anchor="start" x="789.1765" y="-557.5" font-family="Arial" font-size="10.00" fill="#000000">FOREIGN KEY (TrackId) REFERENCES tracks (TrackId) ON UPDATE NO ACTION ON DELETE NO ACTION MATCH NONE</text>
</g>
</g>
</svg>
