<?xml version="1.0" encoding="UTF-8" standalone="no"?>
<!DOCTYPE svg PUBLIC "-//W3C//DTD SVG 1.1//EN"
 "http://www.w3.org/Graphics/SVG/1.1/DTD/svg11.dtd">
<!-- Generated by graphviz version 2.40.1 (20161225.0304)
 -->
<!-- Title: media_types Pages: 1 -->
<svg width="907pt" height="622pt"
 viewBox="0.00 0.00 906.50 622.00" xmlns="http://www.w3.org/2000/svg" xmlns:xlink="http://www.w3.org/1999/xlink">
<g id="graph0" class="graph" transform="scale(1 1) rotate(0) translate(4 618)">
<title>media_types</title>
<polygon fill="#ffffff" stroke="transparent" points="-4,4 -4,-618 902.5,-618 902.5,4 -4,4"/>
<!-- media_types -->
<g id="node1" class="node">
<title>media_types</title>
<polygon fill="#efefef" stroke="transparent" points="57.5,-105.5 57.5,-140.5 231.5,-140.5 231.5,-105.5 57.5,-105.5"/>
<polygon fill="none" stroke="#000000" points="57.5,-105.5 57.5,-140.5 231.5,-140.5 231.5,-105.5 57.5,-105.5"/>
<text text-anchor="start" x="72.4787" y="-118.3" font-family="Arial Bold" font-size="18.00" fill="#000000">media_types</text>
<text text-anchor="start" x="174.5045" y="-118.3" font-family="Arial" font-size="14.00" fill="#000000"> </text>
<text text-anchor="start" x="178.3951" y="-118.3" font-family="Arial" font-size="14.00" fill="#666666">[table]</text>
<polygon fill="none" stroke="#000000" points="57.5,-75.5 57.5,-105.5 231.5,-105.5 231.5,-75.5 57.5,-75.5"/>
<text text-anchor="start" x="64.5" y="-86.9" font-family="Arial" font-size="14.00" fill="#000000">MediaTypeId </text>
<text text-anchor="start" x="149.2966" y="-86.9" font-family="Arial" font-size="14.00" fill="#666666">[INTEGER]</text>
<polygon fill="none" stroke="#000000" points="57.5,-45.5 57.5,-75.5 231.5,-75.5 231.5,-45.5 57.5,-45.5"/>
<text text-anchor="start" x="64.392" y="-56.9" font-family="Arial" font-size="14.00" fill="#000000">Name </text>
<text text-anchor="start" x="105.615" y="-56.9" font-family="Arial" font-size="14.00" fill="#666666">[NVARCHAR(120)]</text>
<polygon fill="none" stroke="#000000" stroke-width="3" points="56,-44.5 56,-142.5 233,-142.5 233,-44.5 56,-44.5"/>
</g>
<!-- tracks -->
<g id="node2" class="node">
<title>tracks</title>
<polygon fill="#efefef" stroke="transparent" points="43.5,-535.5 43.5,-570.5 244.5,-570.5 244.5,-535.5 43.5,-535.5"/>
<polygon fill="none" stroke="#000000" points="43.5,-535.5 43.5,-570.5 244.5,-570.5 244.5,-535.5 43.5,-535.5"/>
<text text-anchor="start" x="98.9913" y="-548.3" font-family="Arial Bold" font-size="18.00" fill="#000000">tracks</text>
<text text-anchor="start" x="146.9919" y="-548.3" font-family="Arial" font-size="14.00" fill="#000000"> </text>
<text text-anchor="start" x="150.8825" y="-548.3" font-family="Arial" font-size="14.00" fill="#666666">[table]</text>
<polygon fill="none" stroke="#000000" points="43.5,-505.5 43.5,-535.5 244.5,-535.5 244.5,-505.5 43.5,-505.5"/>
<text text-anchor="start" x="50.5" y="-516.9" font-family="Arial" font-size="14.00" fill="#000000">TrackId </text>
<text text-anchor="start" x="101.0596" y="-516.9" font-family="Arial" font-size="14.00" fill="#666666">[INTEGER]</text>
<polygon fill="none" stroke="#000000" points="43.5,-475.5 43.5,-505.5 244.5,-505.5 244.5,-475.5 43.5,-475.5"/>
<text text-anchor="start" x="50.5" y="-486.9" font-family="Arial" font-size="14.00" fill="#000000">Name </text>
<text text-anchor="start" x="91.723" y="-486.9" font-family="Arial" font-size="14.00" fill="#666666">[NVARCHAR(200)]</text>
<polygon fill="none" stroke="#000000" points="43.5,-445.5 43.5,-475.5 244.5,-475.5 244.5,-445.5 43.5,-445.5"/>
<text text-anchor="start" x="50.5" y="-456.9" font-family="Arial" font-size="14.00" fill="#000000">AlbumId </text>
<text text-anchor="start" x="105.7328" y="-456.9" font-family="Arial" font-size="14.00" fill="#666666">[INTEGER]</text>
<polygon fill="none" stroke="#000000" points="43.5,-415.5 43.5,-445.5 244.5,-445.5 244.5,-415.5 43.5,-415.5"/>
<text text-anchor="start" x="50.5" y="-426.9" font-family="Arial" font-size="14.00" fill="#000000">MediaTypeId </text>
<text text-anchor="start" x="135.2966" y="-426.9" font-family="Arial" font-size="14.00" fill="#666666">[INTEGER]</text>
<polygon fill="none" stroke="#000000" points="43.5,-385.5 43.5,-415.5 244.5,-415.5 244.5,-385.5 43.5,-385.5"/>
<text text-anchor="start" x="50.5" y="-396.9" font-family="Arial" font-size="14.00" fill="#000000">GenreId </text>
<text text-anchor="start" x="104.9628" y="-396.9" font-family="Arial" font-size="14.00" fill="#666666">[INTEGER]</text>
<polygon fill="none" stroke="#000000" points="43.5,-355.5 43.5,-385.5 244.5,-385.5 244.5,-355.5 43.5,-355.5"/>
<text text-anchor="start" x="50.2791" y="-366.9" font-family="Arial" font-size="14.00" fill="#000000">Composer </text>
<text text-anchor="start" x="118.7279" y="-366.9" font-family="Arial" font-size="14.00" fill="#666666">[NVARCHAR(220)]</text>
<polygon fill="none" stroke="#000000" points="43.5,-325.5 43.5,-355.5 244.5,-355.5 244.5,-325.5 43.5,-325.5"/>
<text text-anchor="start" x="50.5" y="-336.9" font-family="Arial" font-size="14.00" fill="#000000">Milliseconds </text>
<text text-anchor="start" x="130.608" y="-336.9" font-family="Arial" font-size="14.00" fill="#666666">[INTEGER]</text>
<polygon fill="none" stroke="#000000" points="43.5,-295.5 43.5,-325.5 244.5,-325.5 244.5,-295.5 43.5,-295.5"/>
<text text-anchor="start" x="50.5" y="-306.9" font-family="Arial" font-size="14.00" fill="#000000">Bytes </text>
<text text-anchor="start" x="89.4004" y="-306.9" font-family="Arial" font-size="14.00" fill="#666666">[INTEGER]</text>
<polygon fill="none" stroke="#000000" points="43.5,-265.5 43.5,-295.5 244.5,-295.5 244.5,-265.5 43.5,-265.5"/>
<text text-anchor="start" x="50.5" y="-276.9" font-family="Arial" font-size="14.00" fill="#000000">UnitPrice </text>
<text text-anchor="start" x="111.1634" y="-276.9" font-family="Arial" font-size="14.00" fill="#666666">[NUMERIC(10,2)]</text>
</g>
<!-- tracks&#45;&gt;media_types -->
<g id="edge1" class="edge">
<title>tracks:MediaTypeId&#45;&gt;media_types:MediaTypeId</title>
<path fill="none" stroke="#000000" d="M254.7378,-429.8877C334.0667,-419.944 300.9306,-291.3305 244.5,-223 190.6054,-157.7403 111.3946,-252.2597 57.5,-187 30.1895,-153.9304 14.6111,-90.5 57.5,-90.5"/>
<polygon fill="#000000" stroke="#000000" points="254.4822,-429.9029 244.2313,-426.008 249.4911,-430.2014 244.5,-430.5 244.5,-430.5 244.5,-430.5 249.4911,-430.2014 244.7687,-434.992 254.4822,-429.9029 254.4822,-429.9029"/>
<text text-anchor="start" x="251.2145" y="-440.5" font-family="Arial" font-size="10.00" fill="#000000">FOREIGN KEY (MediaTypeId) REFERENCES media_types (MediaTypeId) ON UPDATE NO ACTION ON DELETE NO ACTION MATCH NONE</text>
</g>
</g>
</svg>
