<?xml version="1.0" encoding="UTF-8" standalone="no"?>
<!DOCTYPE svg PUBLIC "-//W3C//DTD SVG 1.1//EN"
 "http://www.w3.org/Graphics/SVG/1.1/DTD/svg11.dtd">
<!-- Generated by graphviz version 2.40.1 (20161225.0304)
 -->
<!-- Title: sqlite_stat1 Pages: 1 -->
<svg width="247pt" height="225pt"
 viewBox="0.00 0.00 247.00 225.00" xmlns="http://www.w3.org/2000/svg" xmlns:xlink="http://www.w3.org/1999/xlink">
<g id="graph0" class="graph" transform="scale(1 1) rotate(0) translate(4 221)">
<title>sqlite_stat1</title>
<polygon fill="#ffffff" stroke="transparent" points="-4,4 -4,-221 243,-221 243,4 -4,4"/>
<!-- sqlite_stat1 -->
<g id="node1" class="node">
<title>sqlite_stat1</title>
<polygon fill="#efefef" stroke="transparent" points="46.5,-135.5 46.5,-170.5 193.5,-170.5 193.5,-135.5 46.5,-135.5"/>
<polygon fill="none" stroke="#000000" points="46.5,-135.5 46.5,-170.5 193.5,-170.5 193.5,-135.5 46.5,-135.5"/>
<text text-anchor="start" x="53.4786" y="-148.3" font-family="Arial Bold" font-size="18.00" fill="#000000">sqlite_stat1</text>
<text text-anchor="start" x="144.5046" y="-148.3" font-family="Arial" font-size="14.00" fill="#000000"> </text>
<text text-anchor="start" x="148.3952" y="-148.3" font-family="Arial" font-size="14.00" fill="#666666">[table]</text>
<polygon fill="none" stroke="#000000" points="46.5,-105.5 46.5,-135.5 193.5,-135.5 193.5,-105.5 46.5,-105.5"/>
<text text-anchor="start" x="53.5" y="-116.9" font-family="Arial" font-size="14.00" fill="#000000">tbl </text>
<text text-anchor="start" x="72.1704" y="-116.9" font-family="Arial" font-size="14.00" fill="#666666">[]</text>
<polygon fill="none" stroke="#000000" points="46.5,-75.5 46.5,-105.5 193.5,-105.5 193.5,-75.5 46.5,-75.5"/>
<text text-anchor="start" x="53.5" y="-86.9" font-family="Arial" font-size="14.00" fill="#000000">idx </text>
<text text-anchor="start" x="75.2798" y="-86.9" font-family="Arial" font-size="14.00" fill="#666666">[]</text>
<polygon fill="none" stroke="#000000" points="46.5,-45.5 46.5,-75.5 193.5,-75.5 193.5,-45.5 46.5,-45.5"/>
<text text-anchor="start" x="53.5" y="-56.9" font-family="Arial" font-size="14.00" fill="#000000">stat </text>
<text text-anchor="start" x="79.9544" y="-56.9" font-family="Arial" font-size="14.00" fill="#666666">[]</text>
<polygon fill="none" stroke="#000000" stroke-width="3" points="44.5,-44.5 44.5,-172.5 194.5,-172.5 194.5,-44.5 44.5,-44.5"/>
</g>
</g>
</svg>
